<svg aria-hidden="true" style="width:0;height:0;position:absolute;overflow:hidden" xmlns="http://www.w3.org/2000/svg"><defs><symbol id="envelope" viewBox="0 0 43 32"><path fill="none" style="fill:var(--color3)" d="M38.667 0H4C1.795 0 0 1.795 0 4v24c0 2.205 1.795 4 4 4h34.667c2.205 0 4-1.795 4-4V4c0-2.205-1.795-4-4-4zm0 2.667c.181 0 .355.037.512.104L21.334 18.238 3.489 2.771c.151-.065.327-.104.512-.104h34.667zm0 26.666H4A1.333 1.333 0 0 1 2.667 28V5.587l17.792 15.421c.233.203.539.327.875.327s.642-.124.876-.328l-.002.001L40 5.587V28c0 .736-.597 1.333-1.333 1.333z"/></symbol><symbol id="facebook" viewBox="0 0 32 32"><path fill="none" style="fill:var(--color4)" d="M21.328 5.312h2.923V.224A36.483 36.483 0 0 0 20.143 0h-.156.008c-4.213 0-7.099 2.65-7.099 7.52V12H8.25v5.688h4.646V32h5.699V17.69h4.459l.707-5.688h-5.168V8.08c0-1.643.443-2.768 2.734-2.768z"/></symbol><symbol id="instagram" viewBox="0 0 32 32"><path fill="none" style="fill:var(--color4)" d="M31.968 9.408c-.074-1.701-.349-2.869-.742-3.882a7.839 7.839 0 0 0-1.85-2.837l-.001-.001A7.906 7.906 0 0 0 26.597.861l-.054-.018C25.524.449 24.362.176 22.661.101 20.949.019 20.405 0 16.059 0c-4.344 0-4.888.019-6.595.094-1.699.074-2.869.349-3.88.742a7.847 7.847 0 0 0-2.839 1.85l-.001.001A7.9 7.9 0 0 0 .919 5.465l-.018.054C.506 6.538.232 7.7.157 9.401c-.082 1.712-.101 2.256-.101 6.602 0 4.344.019 4.888.094 6.595.075 1.701.35 2.869.744 3.882a7.915 7.915 0 0 0 1.849 2.837l.001.001c.8.813 1.77 1.443 2.832 1.843 1.019.395 2.182.67 3.882.744 1.707.075 2.251.094 6.595.094 4.346 0 4.89-.019 6.595-.094 1.701-.074 2.869-.349 3.882-.742a8.237 8.237 0 0 0 4.664-4.628l.019-.055c.394-1.019.669-2.182.744-3.882.075-1.707.093-2.251.093-6.595s-.006-4.888-.08-6.595zm-2.88 13.066c-.07 1.563-.333 2.406-.55 2.97a5.341 5.341 0 0 1-3.004 3.024l-.036.012c-.56.219-1.411.482-2.968.55-1.688.075-2.194.094-6.464.094-4.269 0-4.782-.019-6.464-.094-1.563-.069-2.406-.331-2.97-.55a4.953 4.953 0 0 1-1.836-1.192l-.001-.001a4.978 4.978 0 0 1-1.184-1.803L3.6 25.45c-.218-.563-.48-1.413-.549-2.97-.075-1.688-.094-2.195-.094-6.464 0-4.27.019-4.784.094-6.464.069-1.563.331-2.406.549-2.97a4.897 4.897 0 0 1 1.198-1.837l.002-.002a4.972 4.972 0 0 1 1.806-1.182l.034-.011c.56-.219 1.411-.48 2.968-.55 1.688-.074 2.195-.093 6.464-.093 4.275 0 4.782.019 6.464.093 1.563.069 2.406.331 2.97.55a4.91 4.91 0 0 1 1.837 1.194c.531.52.938 1.144 1.195 1.84.218.56.48 1.411.549 2.968.075 1.688.094 2.194.094 6.464 0 4.269-.019 4.768-.094 6.458z"/><path fill="none" style="fill:var(--color4)" d="M16.059 7.782a8.223 8.223 0 0 0-8.219 8.221 8.223 8.223 0 0 0 16.442.008v-.009a8.223 8.223 0 0 0-8.221-8.221zm0 13.552a5.333 5.333 0 0 1 .001-10.666h.001a5.334 5.334 0 1 1 0 10.668zM26.525 7.458a1.92 1.92 0 0 1-3.84 0 1.92 1.92 0 0 1 3.84 0z"/></symbol><symbol id="linkedin" viewBox="0 0 32 32"><path d="M31.992 32H32V20.262c0-5.741-1.237-10.163-7.947-10.163-3.227 0-5.392 1.77-6.277 3.45h-.093v-2.914h-6.365v21.363h6.627V21.42c0-2.786.528-5.48 3.978-5.48 3.398 0 3.448 3.179 3.448 5.658V32h6.621zM.528 10.635h6.635V32H.528V10.635zM3.843 0A3.843 3.843 0 0 0 0 3.843c0 2.12 1.722 3.878 3.843 3.878 2.12 0 3.842-1.757 3.842-3.878S5.965.002 3.844 0z"/></symbol><symbol id="smartphone" viewBox="0 0 20 32"><path fill="none" style="fill:var(--color3)" d="M17 0H3C1.346 0 0 1.346 0 3v26c0 1.654 1.346 3 3 3h14c1.654 0 3-1.346 3-3V3c0-1.654-1.346-3-3-3zM3 2h14a1 1 0 0 1 1 1v21H2V3a1 1 0 0 1 1-1zm14 28H3a1 1 0 0 1-1-1v-3h16v3a1 1 0 0 1-1 1z"/><path fill="none" style="fill:var(--color3)" d="M4.708 27.478a.889.889 0 0 1 .001 1.319l-.001.001a1.048 1.048 0 0 1-1.417 0l.001.001a.889.889 0 0 1-.001-1.319l.001-.001a1.048 1.048 0 0 1 1.417 0l-.001-.001z"/></symbol><symbol id="twitter" viewBox="0 0 32 32"><path fill="none" style="fill:var(--color4)" d="M32 6.078c-1.1.493-2.376.857-3.713 1.028l-.068.007a6.556 6.556 0 0 0 2.873-3.579l.013-.046a12.88 12.88 0 0 1-4.076 1.573l-.084.014A6.558 6.558 0 0 0 15.6 9.557v.004c0 .52.043 1.021.152 1.496-5.454-.266-10.28-2.88-13.522-6.861a6.524 6.524 0 0 0-.902 3.313v.001a6.57 6.57 0 0 0 2.914 5.451 6.453 6.453 0 0 1-2.994-.823l.033.017v.072a6.592 6.592 0 0 0 5.213 6.44l.043.008a6.403 6.403 0 0 1-1.662.215h-.061.003c-.419 0-.843-.024-1.242-.112.85 2.598 3.261 4.509 6.13 4.57a13.093 13.093 0 0 1-8.122 2.8H1.57h.001-.062c-.531 0-1.055-.034-1.569-.099l.061.006c2.826 1.846 6.287 2.944 10.004 2.944h.063-.003c12.072 0 18.672-10 18.672-18.669 0-.288-.01-.57-.024-.848a13.203 13.203 0 0 0 3.258-3.355l.03-.047z"/></symbol><symbol id="email" viewBox="0 0 16 12"><path style="fill:var(--color4)" d="M14 0H2C1.175 0 .507.675.507 1.5l-.007 9c0 .825.675 1.5 1.5 1.5h12c.825 0 1.5-.675 1.5-1.5v-9C15.5.675 14.825 0 14 0Zm-.3 3.188L8.398 6.502a.759.759 0 0 1-.795 0L2.3 3.187a.637.637 0 1 1 .675-1.08L8 5.25l5.025-3.143a.637.637 0 1 1 .675 1.08Z" fill="#212121"/></symbol><symbol id="phone" viewBox="0 0 14 14"><path style="fill:var(--color4)" d="m11.996 9.123-1.838-.21a1.44 1.44 0 0 0-1.187.412l-1.332 1.332a10.888 10.888 0 0 1-4.769-4.77L4.21 4.55a1.44 1.44 0 0 0 .412-1.187l-.21-1.824a1.448 1.448 0 0 0-1.44-1.28H1.72C.902.257.222.937.272 1.754c.384 6.18 5.327 11.116 11.5 11.5.817.05 1.498-.63 1.498-1.448v-1.252a1.434 1.434 0 0 0-1.274-1.432Z" fill="#212121"/></symbol><symbol id="whatsapp" viewBox="0 0 32 32"><path style="fill:var(--color1)" d="M32 16c0 8.837-7.163 16-16 16S0 24.837 0 16 7.163 0 16 0s16 7.163 16 16z"/><path style="fill:var(--color1)" d="m12.828 31.68-6.219-6.219 1.706-4.963s-2.625-4.64-.281-8.062c0 0 2.25-4.312 5.25-4.734 0 0 3.328-1.266 5.765 0 0 0 2.578 1.019 2.906 1.423h.556l9.306 9.306s-.296 1.638-.58 2.448c0 0-.184.584-.371 1.033 0 0-.299.719-.446 1.016 0 0-.327.651-.447.862 0 0-.382.656-.523.872 0 0-.69 1.019-1.041 1.437 0 0-.435.517-.585.68 0 0-.41.435-.5.525 0 0-.486.48-.779.731 0 0-.752.642-1.188.945 0 0-1.312.912-2.155 1.305 0 0-1.268.611-2.02.849 0 0-1.525.48-2.302.604 0 0-.725.122-1.024.154 0 0-.538.059-.819.075 0 0-.896.03-1.087.03 0 0-.586-.005-.836-.021 0 0-.85-.067-1.097-.1 0 0-.326-.044-.387-.054l-.386-.063-.415-.079z"/><path style="fill:var(--color2,#000)" d="M22.678 9.294c-1.74-1.791-4.145-2.763-6.601-2.763-5.22 0-9.415 4.247-9.364 9.415 0 1.637.46 3.224 1.228 4.657l-1.33 4.861 4.964-1.279c1.381.768 2.917 1.126 4.452 1.126 5.168 0 9.364-4.247 9.364-9.416 0-2.507-.972-4.861-2.712-6.601zm-2.559 13.253c-1.177.768-2.61 1.177-4.042 1.177-1.382 0-2.763-.358-3.94-1.074l-.307-.153-2.968.768.768-2.917-.205-.307c-2.251-3.633-1.177-8.443 2.507-10.695s8.443-1.177 10.695 2.507c2.252 3.684 1.177 8.443-2.507 10.694z"/><path style="fill:var(--color2,#000)" d="M20.017 17.789s-.819-.358-1.331-.614c-.051 0-.102-.051-.154-.051a.741.741 0 0 0-.358.102s-.051.051-.768.87a.283.283 0 0 1-.256.154h-.051a.393.393 0 0 1-.205-.102l-.256-.102c-.563-.256-1.075-.563-1.484-.972-.102-.102-.256-.204-.358-.307-.358-.358-.716-.768-.972-1.228l-.051-.102c-.051-.051-.051-.102-.102-.205 0-.102 0-.205.051-.256 0 0 .205-.256.358-.409.102-.102.153-.256.256-.358.102-.153.153-.358.102-.512-.051-.256-.665-1.638-.818-1.944-.102-.154-.205-.205-.358-.256H12.7c-.102 0-.205.051-.307.051l-.051.051c-.102.051-.205.154-.307.205-.102.102-.154.205-.256.307a2.609 2.609 0 0 0-.563 1.586c0 .409.102.819.256 1.177l.051.154a8.536 8.536 0 0 0 1.893 2.61l.205.204c.153.154.307.256.409.41a9.147 9.147 0 0 0 3.684 1.944c.153.051.358.051.512.102h.512c.256 0 .563-.102.768-.205.153-.102.256-.102.358-.205l.102-.102c.102-.102.205-.154.307-.256s.205-.205.256-.307c.102-.204.153-.46.205-.716v-.358s-.051-.051-.154-.102l-.563-.256z"/></symbol><symbol id="viber" viewBox="0 0 32 32"><path d="M16 0C7.163 0 0 7.163 0 16s7.163 16 16 16 16-7.163 16-16S24.837 0 16 0zm.958 6.517a8.841 8.841 0 0 1 2.932.868c.949.464 1.556.903 2.359 1.702.753.755 1.17 1.326 1.613 2.214.617 1.238.968 2.709 1.028 4.329.022.553.006.676-.12.834-.24.306-.769.256-.949-.088-.057-.114-.073-.212-.092-.654a11.47 11.47 0 0 0-.174-1.642c-.373-2.056-1.36-3.698-2.935-4.876-1.312-.985-2.669-1.465-4.447-1.569-.601-.035-.705-.057-.841-.161-.253-.199-.266-.666-.022-.884.149-.136.253-.155.769-.139.269.009.664.041.879.066zm-7.229.341c.111.038.281.126.38.189.601.398 2.274 2.536 2.821 3.603.313.609.417 1.061.319 1.396-.101.36-.269.549-1.018 1.153-.3.243-.582.493-.626.559-.114.164-.206.486-.206.714.003.527.345 1.484.794 2.22.348.572.971 1.304 1.588 1.866.724.663 1.363 1.115 2.084 1.472.927.461 1.493.578 1.907.385.104-.047.215-.111.25-.139.032-.028.275-.325.541-.654.512-.644.629-.748.98-.868.446-.152.901-.111 1.36.123.348.18 1.107.651 1.597.992.645.452 2.024 1.576 2.211 1.8.329.404.386.922.164 1.494-.234.603-1.145 1.734-1.781 2.217-.576.436-.984.603-1.521.628-.443.022-.626-.016-1.192-.249-4.44-1.828-7.985-4.557-10.8-8.305-1.471-1.958-2.59-3.988-3.356-6.095-.446-1.228-.468-1.762-.101-2.39.158-.265.832-.922 1.322-1.288.816-.606 1.192-.831 1.493-.894.206-.044.563-.01.791.073zm7.447 1.949c1.92.281 3.406 1.172 4.38 2.618a6.279 6.279 0 0 1 1.006 2.798c.041.376.041 1.061-.003 1.175a.72.72 0 0 1-.288.313c-.123.063-.386.057-.531-.019-.244-.123-.316-.319-.316-.849 0-.818-.212-1.68-.579-2.349a4.803 4.803 0 0 0-1.765-1.835c-.636-.379-1.575-.66-2.432-.729-.31-.025-.481-.088-.598-.224a.575.575 0 0 1-.047-.714c.164-.256.417-.297 1.173-.183zm.674 2.384c.623.133 1.101.369 1.509.752.525.496.813 1.096.939 1.958.085.562.051.783-.149.966-.187.171-.531.177-.74.016-.152-.114-.199-.234-.234-.559-.041-.433-.117-.736-.247-1.017-.278-.597-.769-.906-1.597-1.007-.389-.047-.506-.092-.633-.24a.588.588 0 0 1 .177-.884c.12-.06.171-.066.436-.051.164.009.408.038.538.066z"/></symbol><symbol id="telegram" viewBox="0 0 32 32"><path d="M16 2.667c-7.333 0-13.333 6-13.333 13.333s6 13.333 13.333 13.333 13.333-6 13.333-13.333S23.333 2.667 16 2.667zm6.533 8.133-2.267 10.933c-.133.8-.667.933-1.2.533l-3.467-2.667c-.8.8-1.6 1.467-1.733 1.733-.267.133-.4.4-.667.4-.4 0-.4-.267-.533-.533l-1.2-4-3.6-1.2c-.8-.267-.8-.8.133-1.2l13.6-5.2c.533-.133 1.2.133.933 1.2zm-3.2 1.2-7.6 4.8 1.2 4 .267-2.667 6.533-5.867c.4-.4.133-.4-.4-.267z"/></symbol></defs></svg>