<svg aria-hidden="true" style="width:0;height:0;position:absolute;overflow:hidden" xmlns="http://www.w3.org/2000/svg"><defs><symbol id="icon-VSCode" viewBox="0 0 32 32"><path fill="#0065a9" style="fill:var(--color1,#0065a9)" d="M30.868 3.455 24.275.28a1.994 1.994 0 0 0-2.274.387L.417 20.347a1.333 1.333 0 0 0 .001 1.972l1.763 1.603a1.334 1.334 0 0 0 1.703.076L29.877 4.279c.872-.662 2.125-.04 2.125 1.055v-.077a2 2 0 0 0-1.132-1.802z"/><path fill="#007acc" style="fill:var(--color2,#007acc)" d="m30.868 28.545-6.593 3.175a1.992 1.992 0 0 1-2.274-.387L.417 11.653a1.333 1.333 0 0 1 .001-1.972l1.763-1.603a1.334 1.334 0 0 1 1.703-.076l25.993 19.719c.872.662 2.125.04 2.125-1.055v.077a2 2 0 0 1-1.132 1.802z"/><path fill="#1f9cf0" style="fill:var(--color3,#1f9cf0)" d="M24.274 31.72A1.994 1.994 0 0 1 22 31.333c.738.738 2 .215 2-.828V1.495c0-1.044-1.262-1.566-2-.828A1.994 1.994 0 0 1 24.274.28l6.592 3.17a2 2 0 0 1 1.133 1.802v21.496a2 2 0 0 1-1.133 1.802l-6.592 3.17z"/><path style="fill:var(--color4,#000)" opacity=".25" d="M22.672 31.781a1.987 1.987 0 0 1-.686-.448L9.374 19.826l-5.494 4.17a1.333 1.333 0 0 1-1.702-.076L.416 22.317a1.333 1.333 0 0 1-.001-1.972l4.764-4.347-4.764-4.347a1.334 1.334 0 0 1 .001-1.972l1.762-1.603A1.333 1.333 0 0 1 3.88 8l5.494 4.17L21.986.663a1.99 1.99 0 0 1 2.273-.387l6.588 3.17a2.001 2.001 0 0 1 1.133 1.802v21.496c0 .769-.44 1.469-1.133 1.802l-6.588 3.17a1.991 1.991 0 0 1-1.587.061zm1.313-23.045L14.415 16l9.57 7.264V8.735z"/></symbol><symbol id="icon-Node" viewBox="0 0 32 32"><path fill="#689f63" style="fill:var(--color5,#689f63)" d="M15.812 25.803a.611.611 0 0 1-.303-.081l-.964-.571c-.144-.081-.074-.109-.026-.125.192-.067.231-.082.436-.199.022-.012.05-.008.072.005l.741.44a.102.102 0 0 0 .09 0l2.889-1.668a.09.09 0 0 0 .044-.078v-3.334a.093.093 0 0 0-.045-.08l-2.888-1.666a.089.089 0 0 0-.089 0l-2.887 1.666a.092.092 0 0 0-.046.079v3.334c0 .032.017.062.045.077l.791.457c.43.215.692-.038.692-.293v-3.29c0-.047.037-.083.084-.083h.366c.046 0 .083.036.083.083v3.292c0 .573-.312.902-.855.902-.167 0-.299 0-.666-.181l-.758-.437a.61.61 0 0 1-.303-.527v-3.334c0-.217.116-.419.303-.526l2.892-1.668a.635.635 0 0 1 .607 0l2.888 1.669a.608.608 0 0 1 .303.526v3.334a.61.61 0 0 1-.303.526l-2.888 1.668a.612.612 0 0 1-.304.081z"/><path fill="#689f63" style="fill:var(--color5,#689f63)" d="M16.704 23.506c-1.264 0-1.529-.58-1.529-1.067 0-.046.037-.083.084-.083h.373c.041 0 .076.03.082.071.056.38.224.572.989.572.609 0 .868-.138.868-.46 0-.186-.074-.324-1.02-.417-.791-.078-1.28-.252-1.28-.885 0-.583.492-.93 1.315-.93.925 0 1.383.321 1.441 1.011a.084.084 0 0 1-.083.091h-.375a.083.083 0 0 1-.081-.065c-.09-.4-.309-.528-.902-.528-.665 0-.742.231-.742.405 0 .21.091.272.988.39.888.118 1.31.284 1.31.908 0 .629-.525.99-1.441.99zm3.515-3.533h.097c.08 0 .095-.056.095-.088 0-.085-.059-.085-.091-.085h-.1zm-.118-.273h.215c.074 0 .218 0 .218.165 0 .115-.074.139-.118.153.086.006.092.062.103.142.006.05.015.136.033.165h-.132a8.41 8.41 0 0 1-.024-.197c-.009-.035-.021-.053-.065-.053h-.109v.25h-.121zm-.258.311a.468.468 0 1 0-.001-.001zm1.023.002a.558.558 0 1 1-.557-.557c.3 0 .556.242.556.557z"/><path fill="#333" style="fill:var(--color6,#333)" d="M6.865 12.758a.369.369 0 0 0-.185-.321l-3.063-1.762a.361.361 0 0 0-.168-.048h-.032a.362.362 0 0 0-.169.048L.185 12.437a.374.374 0 0 0-.185.322l.007 4.747c0 .066.034.127.092.16a.174.174 0 0 0 .184 0l1.821-1.043a.372.372 0 0 0 .185-.321v-2.218c0-.132.07-.255.185-.32l.775-.446a.372.372 0 0 1 .185-.05c.063 0 .128.016.184.05l.775.446a.368.368 0 0 1 .185.32v2.217c0 .132.071.253.186.321l1.82 1.042a.18.18 0 0 0 .185 0 .187.187 0 0 0 .092-.16zm14.454 2.472a.093.093 0 0 1-.046.08l-1.052.606a.094.094 0 0 1-.092 0l-1.052-.606a.09.09 0 0 1-.046-.08v-1.215a.09.09 0 0 1 .046-.08l1.051-.607a.091.091 0 0 1 .093 0l1.052.607a.092.092 0 0 1 .046.08zm.284-8.996a.184.184 0 0 0-.275.162v4.701a.13.13 0 0 1-.194.112l-.767-.442a.37.37 0 0 0-.37 0l-3.064 1.768a.37.37 0 0 0-.185.32v3.538a.37.37 0 0 0 .185.32l3.064 1.77a.37.37 0 0 0 .37 0l3.064-1.77a.372.372 0 0 0 .185-.32V7.576a.37.37 0 0 0-.19-.323zm10.204 7.749a.37.37 0 0 0 .184-.32v-.857a.37.37 0 0 0-.184-.32l-3.045-1.767a.368.368 0 0 0-.371 0l-3.063 1.768a.37.37 0 0 0-.185.32v3.536c0 .133.072.256.187.322l3.044 1.735a.37.37 0 0 0 .363.002l1.841-1.023c.058-.033.095-.094.095-.161s-.035-.129-.093-.161l-3.082-1.769a.184.184 0 0 1-.093-.16v-1.109c0-.066.035-.127.093-.16l.959-.553a.183.183 0 0 1 .184 0l.96.553a.186.186 0 0 1 .093.16v.872c0 .066.035.127.093.161s.128.033.185-.001z"/><path fill="#689f63" style="fill:var(--color5,#689f63)" d="M28.532 13.818a.07.07 0 0 1 .071 0l.588.339a.07.07 0 0 1 .035.061v.679a.07.07 0 0 1-.035.061l-.588.339a.07.07 0 0 1-.071 0l-.588-.339a.071.071 0 0 1-.036-.061v-.679a.07.07 0 0 1 .035-.061z"/><path style="fill:var(--color4,#000)" d="M18.3 12.196 9.715 7.988l-4.402 8.98 8.585 4.208z"/><path style="fill:var(--color4,#000)" d="m4.756 13.441 6.062 8.205 8.017-5.923-6.062-8.204z"/><path style="fill:var(--color4,#000)" d="M8.585 10.688v7.769h6.63v-7.769z"/></symbol><symbol id="icon-React" viewBox="0 0 32 32"><path fill="#61dafb" style="fill:var(--color7,#61dafb)" d="M18.852 16.322a2.852 2.852 0 1 1-5.704 0 2.852 2.852 0 0 1 5.704 0z"/><path fill="none" stroke="#61dafb" style="stroke:var(--color7,#61dafb)" stroke-width="1.391" d="M31.304 16.322c0 3.227-6.852 5.843-15.304 5.843S.696 19.549.696 16.322 7.548 10.479 16 10.479s15.304 2.616 15.304 5.843z"/><path fill="none" stroke="#61dafb" style="stroke:var(--color7,#61dafb)" stroke-width="1.391" d="M23.652 29.576c-2.795 1.614-8.487-3.012-12.713-10.332S5.553 4.682 8.347 3.068C11.142 1.454 16.834 6.08 21.06 13.4s5.386 14.562 2.592 16.176z"/><path fill="none" stroke="#61dafb" style="stroke:var(--color7,#61dafb)" stroke-width="1.391" d="M8.348 29.576C5.553 27.962 6.713 20.72 10.94 13.4S20.858 1.454 23.653 3.068c2.795 1.614 1.635 8.856-2.592 16.176S11.143 31.19 8.348 29.576z"/></symbol><symbol id="icon-Javascript" viewBox="0 0 32 32"><path fill="#101010" style="fill:var(--color8,#101010)" opacity=".85" d="M23.375.013c.354-.005.711-.01 1.068-.013l.018.787c-.365 0-.729-.003-1.091-.003 0-.192.005-.577.005-.772z"/><path fill="#131313" style="fill:var(--color9,#131313)" d="M1.745.175c.651.005 1.304.008 1.96.01-.056 1.165.172 2.375-.157 3.509-.425.815-1.484.656-2.246.671-.03-.258-.061-.516-.089-.775.438-.035.914.051 1.317-.175.261-.808.144-1.671.079-2.502-.223.005-.666.01-.889.013.008-.187.018-.565.025-.752zM14.782.494c.767-.592 1.775-.349 2.628-.119-.003.225-.005.676-.005.901-.661-.266-1.917-.846-2.084.248.625.19 1.286.301 1.853.641.603.491.433 1.608-.261 1.945-.79.468-1.727.213-2.56.043-.048-.347-.096-.691-.139-1.038.701.309 2.122 1.041 2.332-.142-.704-.266-1.58-.304-2.091-.911-.225-.516-.187-1.236.327-1.567zM28.781.319h.896c.008.286.018.572.03.858l.917.01.018.694c-.233-.003-.699-.008-.932-.013.013.58-.137 1.213.154 1.747l.871.089c-.023 1.066-1.238.582-1.881.415a21.99 21.99 0 0 1-.086-1.955c-.165-.23-.329-.463-.491-.694l.496-.456c.003-.175.005-.524.008-.696zM4.495 1.21c.825-.043 1.98-.349 2.499.504.185.846.068 1.724.096 2.585l-1.106-.101c-.42.035-.914.347-1.301.068-.643-.309-.653-1.448.023-1.724.491-.203 1.028-.238 1.542-.36-.489-.506-1.182-.314-1.798-.248.013-.182.035-.544.046-.724zM5.3 2.95c-.028.246-.053.491-.076.739l.846-.043c.02-.266.043-.532.066-.798l-.836.101zM7.468 1.122l.975.192c.256.587.43 1.205.679 1.798.208-.633.4-1.274.587-1.914l.975-.018a42.719 42.719 0 0 1-1.16 3.218 6.347 6.347 0 0 1-.982-.208c-.461-.982-.765-2.031-1.074-3.069zM10.997 1.929c.071-.241.152-.481.241-.717.785-.114 1.848-.281 2.388.453.185.876.071 1.782.089 2.671l-1.111-.152c-.663.352-1.77.225-1.755-.709-.127-1.109 1.258-1.124 2.01-1.271-.453-.608-1.238-.286-1.861-.276zm.917 1.043c-.028.228-.053.458-.079.686.278.008.557.015.838.02l.076-.841c-.278.043-.557.089-.836.134zM17.77 2.757c-.078-1.377 1.674-2.099 2.722-1.365.025.195.073.587.096.782-.481-.152-.975-.496-1.491-.263-.547.522-.433 1.846.494 1.767l1.02-.324c-.046.218-.134.653-.177.868-1.096.516-2.75-.094-2.664-1.466zM21.008 1.111c.38.101.767.203 1.149.311.286-.104.575-.205.866-.309.013.243.043.729.058.972l-1.089.053a79.098 79.098 0 0 0-.038 2.177c-.238.003-.717.005-.955.008a95.594 95.594 0 0 1 .008-3.213zM25.125 1.18c.699.157 1.403.109 2.099-.03 1.091.225 1.117 1.772.701 2.583-.344.699-1.187.633-1.838.598l.015 1.106c-.243-.003-.734-.008-.98-.013 0-1.413-.003-2.828.003-4.243zm.987.744c-.01.59-.015 1.182-.01 1.772.314-.086.719-.025.957-.296.177-.481.038-1 .003-1.496-.317.005-.633.013-.949.02zM23.467 1.187h.899c.015 1.046.015 2.089 0 3.134h-.899a90.95 90.95 0 0 1 0-3.134z"/><path fill="#d6ba32" style="fill:var(--color10,#d6ba32)" d="M4.68 6.355c2.524-.106 5.054.03 7.58-.013 2.788-.089 5.573-.015 8.363-.005 2.213.005 4.426-.01 6.639.008-.696 7.679-1.398 15.358-2.043 23.043-2.965.843-5.932 1.674-8.897 2.512-.38.157-.77.01-1.134-.089a852.203 852.203 0 0 0-8.459-2.393A1603.427 1603.427 0 0 1 4.681 6.355zm11.338 2.003c-.104 3.788-.015 7.575-.046 11.363.028 3.464-.051 6.93.04 10.393 2.491-.587 4.95-1.309 7.408-2.02.618-6.575 1.22-13.151 1.737-19.734-3.046-.03-6.094.005-9.14-.003zm-3.17 14.791c-1.463-.4-2.909-.861-4.393-1.177-.043.881-.028 1.762.073 2.638 2.172.529 4.299 1.225 6.474 1.744.015-5.016-.008-10.034.01-15.05-.709-.018-1.418-.028-2.127-.043-.081 3.96-.005 7.925-.038 11.887z"/><path fill="#ffda3e" style="fill:var(--color11,#ffda3e)" d="M16.018 8.358c3.046.008 6.094-.028 9.14.003-.517 6.583-1.119 13.158-1.737 19.734-2.458.711-4.917 1.433-7.408 2.02-.091-3.464-.013-6.93-.04-10.393.03-3.788-.058-7.575.046-11.363zm.853 2.944c.01 3.261.013 6.525 0 9.786 1.489-.241 2.972-.517 4.456-.787a173.5 173.5 0 0 1-.086 2.279c-1.446.385-2.889.782-4.342 1.139a76.871 76.871 0 0 0-.018 2.631c1.831-.41 3.633-.927 5.451-1.385.228-.106.666-.094.646-.451.22-2.345.357-4.699.57-7.049-1.506.124-2.998.377-4.504.481-.013-1.332-.015-2.664.005-3.995 1.585 0 3.167 0 4.752.003.101-.889.19-1.78.258-2.671-2.395.01-4.793-.023-7.188.02z"/><path fill="#ebebeb" style="fill:var(--color12,#ebebeb)" d="M12.848 23.149c.033-3.962-.043-7.927.038-11.887.709.015 1.418.025 2.127.043-.018 5.016.005 10.034-.01 15.05-2.175-.519-4.302-1.215-6.474-1.744a16.139 16.139 0 0 1-.073-2.638c1.484.317 2.929.777 4.393 1.177z"/></symbol><symbol id="icon-CSS3" viewBox="0 0 32 32"><path fill="#264de4" style="fill:var(--color13,#264de4)" d="m27.416 6.311-2.072 23.217-9.316 2.583-9.29-2.579-2.07-23.221z"/><path fill="#2965f1" style="fill:var(--color14,#2965f1)" d="m23.569 28.049 1.771-19.84h-9.299v21.927z"/><path fill="#ebebeb" style="fill:var(--color12,#ebebeb)" d="m9.413 16.822.255 2.848h6.373v-2.848zM16.041 11.057H8.9l.259 2.848h6.882zM16.041 27.181v-2.963l-.012.003-3.172-.856-.203-2.271H9.795l.399 4.472 5.834 1.62z"/><path style="fill:var(--color4,#000)" d="M10.021 0h3.449v1.442h-2.007v1.442h2.007v1.442h-3.449zM14.16 0h3.449v1.254h-2.007v.251h2.007V4.39H14.16V3.073h2.007v-.251H14.16zM18.299 0h3.449v1.254h-2.007v.251h2.007V4.39h-3.449V3.073h2.007v-.251h-2.007z"/><path fill="#fff" style="fill:var(--color15,#fff)" d="m19.538 19.669-.331 3.694-3.176.857v2.963l5.838-1.618.043-.481.669-7.498.07-.765.514-5.764h-7.134v2.848h4.013l-.259 2.916h-3.754v2.848z"/></symbol><symbol id="icon-HTML5" viewBox="0 0 32 32"><path style="fill:var(--color4,#000)" d="M6.775 0h1.438v1.425h1.325V0h1.438v4.313H9.538V2.875H8.225v1.438h-1.45zm6.1 1.438h-1.269V0h3.981v1.438h-1.275v2.875h-1.438zM16.219 0h1.506l.925 1.519L19.575 0h1.506v4.313h-1.438V2.175l-1.006 1.55-1.006-1.55v2.138h-1.413zm5.575 0h1.438v2.888h2.038v1.425h-3.475z"/><path fill="#e44d26" style="fill:var(--color16,#e44d26)" d="M6.725 29.438 4.662 6.288h22.675l-2.063 23.137L15.98 32z"/><path fill="#f16529" style="fill:var(--color17,#f16529)" d="M16 30.031V8.187h9.269L23.5 27.937z"/><path fill="#ebebeb" style="fill:var(--color12,#ebebeb)" d="M8.875 11.019H16v2.838h-4.012l.262 2.906H16v2.831H9.65zm.9 10h2.85l.2 2.269 3.175.85V27.1l-5.825-1.625z"/><path fill="#fff" style="fill:var(--color15,#fff)" d="M23.1 11.019h-7.113v2.838h6.85zm-.519 5.743h-6.594v2.837h3.5l-.331 3.688-3.169.85v2.95l5.813-1.613z"/></symbol><symbol id="icon-Mongodb" viewBox="0 0 32 32"><path fill="#8e714e" style="fill:var(--color18,#8e714e)" d="M29.795 15.216c-.029.006-.058.069-.058.104-.006.231-.012.842-.012 1.257 0 .012.017.035.035.035.087.006.294.012.473.012.248 0 .392-.035.473-.069.208-.104.306-.329.306-.577 0-.559-.392-.773-.975-.773a.887.887 0 0 0-.242.012zm1.488 2.579c0-.571-.421-.888-1.182-.888-.035 0-.277-.006-.335.006-.017.006-.04.017-.04.035 0 .409-.006 1.061.012 1.315.012.11.092.265.19.311.104.058.34.069.502.069.456 0 .854-.254.854-.848zm-2.665-2.896c.058 0 .231.017.675.017.421 0 .756-.011 1.165-.011.502 0 1.194.179 1.194.929 0 .369-.26.663-.6.807-.017.006-.017.017 0 .023.484.121.911.421.911.986 0 .554-.346.906-.848 1.125-.306.133-.686.179-1.073.179-.294 0-1.084-.035-1.523-.023-.046-.017.04-.225.081-.26.104-.006.185-.012.294-.046.156-.04.173-.087.196-.323.012-.202.012-.917.012-1.425 0-.698.006-1.171 0-1.402-.006-.179-.069-.236-.196-.271-.098-.017-.26-.04-.392-.058-.029-.029.069-.225.104-.248zm-3.328 3.588c.139.11.41.156.652.156.311 0 .623-.058.923-.329.306-.277.519-.704.519-1.384 0-.652-.248-1.182-.756-1.494-.288-.179-.657-.254-1.084-.254-.127 0-.248.006-.323.04-.017.012-.058.063-.058.092-.012.115-.012 1.004-.012 1.523 0 .536 0 1.286.012 1.373 0 .087.04.219.127.277zm-1.309-3.588c.11 0 .531.017.733.017.363 0 .623-.017 1.309-.017.577 0 1.061.156 1.407.45.421.363.64.865.64 1.477 0 .871-.398 1.373-.796 1.661-.398.294-.917.467-1.655.467-.392 0-1.067-.012-1.627-.017h-.006c-.029-.052.046-.254.092-.259a.896.896 0 0 0 .265-.052c.121-.046.144-.11.162-.323.017-.398.012-.877.012-1.419 0-.386.006-1.142-.006-1.384-.017-.202-.104-.254-.277-.288-.087-.017-.202-.04-.363-.058-.023-.04.081-.219.11-.254z"/><path fill="#442d22" style="fill:var(--color19,#442d22)" d="M17.002 18.712a1.147 1.147 0 0 1-.375-.098.179.179 0 0 1-.046-.092c-.012-.202-.012-.779-.012-1.165 0-.311-.052-.583-.185-.773a.789.789 0 0 0-.669-.346c-.254 0-.594.173-.877.415-.006.006-.052.046-.046-.017 0-.063.012-.19.017-.277.006-.081-.04-.121-.04-.121-.185.092-.704.213-.894.231-.138.029-.173.162-.029.208h.006c.156.046.259.098.34.15.058.046.052.11.052.162.006.433.006 1.096-.011 1.459-.006.144-.046.196-.15.219l.012-.006c-.081.017-.144.035-.242.046-.035.035-.035.219 0 .26.063 0 .398-.017.675-.017.381 0 .577.017.675.017.04-.046.052-.219.029-.26a1.082 1.082 0 0 1-.265-.04c-.104-.023-.133-.075-.139-.196-.011-.306-.011-.952-.011-1.39 0-.121.035-.179.069-.213a.875.875 0 0 1 .536-.196c.185 0 .306.058.398.133a.572.572 0 0 1 .185.363c.029.248.017.738.017 1.165 0 .231-.017.288-.104.317-.04.017-.144.04-.265.052-.04.04-.029.219 0 .26.167 0 .363-.017.652-.017.358 0 .588.017.681.017.029-.035.04-.202.017-.248zm1.598-2.204c-.306 0-.496.236-.496.605 0 .375.167.808.64.808.081 0 .231-.035.3-.115.11-.104.185-.311.185-.531 0-.479-.236-.767-.629-.767zm-.041 2.55a.495.495 0 0 0-.248.064c-.242.156-.352.306-.352.485 0 .167.063.3.202.415.167.144.398.213.692.213.588 0 .848-.317.848-.629 0-.219-.11-.363-.334-.444-.162-.069-.456-.104-.808-.104zm.041 1.499c-.352 0-.606-.075-.825-.242a.763.763 0 0 1-.306-.571c0-.046.012-.173.115-.288.063-.069.202-.202.531-.427.012-.006.017-.012.017-.023s-.012-.023-.023-.029c-.271-.104-.352-.271-.375-.363v-.012c-.006-.035-.017-.069.035-.104.04-.029.098-.063.161-.104.098-.058.202-.121.265-.173.012-.012.012-.023.012-.035s-.012-.023-.023-.029c-.404-.133-.605-.433-.605-.883 0-.294.133-.559.369-.727.162-.127.565-.283.831-.283h.017c.271.006.421.063.634.138.115.04.225.058.375.058.225 0 .323-.069.404-.15a.43.43 0 0 1-.052.38c-.046.063-.15.11-.254.11h-.029c-.104-.012-.15-.023-.15-.023l-.023.012c-.006.012 0 .023.006.04l.006.012c.012.052.035.208.035.248 0 .473-.19.68-.392.836a1.338 1.338 0 0 1-.675.26c-.006 0-.029 0-.081.006-.029 0-.069.006-.075.006h-.006c-.046.012-.161.069-.161.167 0 .087.052.19.3.208.052.006.104.006.162.012.329.023.738.052.929.115a.647.647 0 0 1 .433.617c0 .427-.306.825-.813 1.073-.248.11-.496.167-.767.167zm3.287-4.02a.538.538 0 0 0-.311.086c-.225.138-.34.415-.34.819 0 .756.381 1.286.923 1.286a.588.588 0 0 0 .398-.138c.167-.139.254-.415.254-.802 0-.75-.375-1.252-.923-1.252zm.104 2.469c-.98 0-1.332-.721-1.332-1.396 0-.473.19-.836.571-1.096.271-.167.594-.259.883-.259.75 0 1.275.536 1.275 1.309 0 .525-.208.94-.606 1.194-.19.127-.519.248-.79.248zm-10.278-2.469a.536.536 0 0 0-.312.087c-.225.138-.34.415-.34.819 0 .756.381 1.286.923 1.286a.588.588 0 0 0 .398-.138c.167-.139.254-.415.254-.802 0-.75-.369-1.252-.923-1.252zm.104 2.469c-.98 0-1.332-.721-1.332-1.396 0-.473.19-.836.571-1.096.271-.167.594-.259.883-.259.75 0 1.275.536 1.275 1.309 0 .525-.208.94-.606 1.194a1.562 1.562 0 0 1-.79.248zm-6.592-.058c-.012-.017-.023-.069-.017-.133 0-.046.012-.075.017-.087.121-.017.185-.035.254-.052.115-.029.162-.092.167-.236a30.9 30.9 0 0 0 .012-1.459v-.012c0-.052 0-.115-.063-.162a1.273 1.273 0 0 0-.346-.15c-.052-.017-.087-.046-.081-.081 0-.035.035-.075.11-.087.19-.017.686-.138.882-.225a.14.14 0 0 1 .029.092l-.006.063a2.314 2.314 0 0 0-.012.213c0 .023.023.04.046.04.012 0 .023-.006.035-.012.369-.288.704-.392.877-.392.283 0 .502.133.669.41.011.017.023.023.04.023.011 0 .029-.006.035-.017.34-.26.681-.415.905-.415.536 0 .854.398.854 1.073 0 .19 0 .438-.006.663 0 .202-.006.386-.006.519 0 .029.04.121.104.138.081.04.19.058.335.081h.006a.447.447 0 0 1-.035.219c-.035 0-.087 0-.144-.006a11.004 11.004 0 0 0-1.159.005.575.575 0 0 1 0-.219c.104-.017.156-.035.219-.052.115-.035.144-.087.15-.236 0-.11.023-1.044-.012-1.269-.035-.231-.208-.502-.588-.502-.144 0-.369.058-.588.225a.107.107 0 0 0-.023.058v.006c.023.121.023.26.023.473v.375c0 .26-.006.502 0 .686 0 .127.075.156.138.179l.086.017.185.04c.012.023.012.098-.006.162-.006.035-.017.052-.023.058a20.51 20.51 0 0 0-.692-.012c-.087 0-.237.006-.363.006-.104 0-.202.006-.26.006a.305.305 0 0 1-.017-.115c0-.052.012-.092.023-.104.029-.006.052-.012.081-.012.069-.012.127-.023.184-.035.098-.029.133-.081.138-.208.017-.288.035-1.113-.006-1.321-.069-.334-.26-.502-.565-.502-.179 0-.404.087-.588.225-.029.023-.052.081-.052.133v.34c0 .415 0 .934.006 1.159.006.069.029.15.162.179.029.006.075.017.133.023l.104.017a.478.478 0 0 1-.017.219c-.058 0-.127-.006-.208-.006a9.081 9.081 0 0 0-.911 0c-.081-.012-.144-.012-.213-.012z"/><path fill="#fff" style="fill:var(--color15,#fff)" d="m2.191 20.332-.236-.081s.029-1.205-.404-1.292c-.288-.335.046-14.188 1.084-.046 0 0-.358.179-.421.485-.069.3-.023.934-.023.934z"/><path fill="#a6a385" style="fill:var(--color20,#a6a385)" d="m2.191 20.332-.236-.081s.029-1.205-.404-1.292c-.288-.335.046-14.188 1.084-.046 0 0-.358.179-.421.485-.069.3-.023.934-.023.934z"/><path fill="#fff" style="fill:var(--color15,#fff)" d="M2.318 19.167s2.071-1.361 1.586-4.193c-.467-2.059-1.569-2.734-1.69-2.993-.133-.185-.26-.508-.26-.508l.087 5.727c0 .006-.179 1.753.277 1.967z"/><path fill="#499d4a" style="fill:var(--color21,#499d4a)" d="M2.318 19.167s2.071-1.361 1.586-4.193c-.467-2.059-1.569-2.734-1.69-2.993-.133-.185-.26-.508-.26-.508l.087 5.727c0 .006-.179 1.753.277 1.967z"/><path fill="#fff" style="fill:var(--color15,#fff)" d="M1.833 19.242S-.111 17.915.005 15.58c.11-2.336 1.482-3.484 1.748-3.691.173-.185.179-.254.19-.438.121.26.098 3.882.115 4.308.052 1.644-.092 3.172-.225 3.484z"/><path fill="#58aa50" style="fill:var(--color22,#58aa50)" d="M1.833 19.242S-.111 17.915.005 15.58c.11-2.336 1.482-3.484 1.748-3.691.173-.185.179-.254.19-.438.121.26.098 3.882.115 4.308.052 1.644-.092 3.172-.225 3.484z"/></symbol><symbol id="icon-Github" viewBox="0 0 32 32"><path d="M16 0C7.16 0 0 7.16 0 16c0 7.08 4.58 13.06 10.94 15.18.8.14 1.1-.34 1.1-.76 0-.38-.02-1.64-.02-2.98-4.02.74-5.06-.98-5.38-1.88-.18-.46-.96-1.88-1.64-2.26-.56-.3-1.36-1.04-.02-1.06 1.26-.02 2.16 1.16 2.46 1.64 1.44 2.42 3.74 1.74 4.66 1.32.14-1.04.56-1.74 1.02-2.14-3.56-.4-7.28-1.78-7.28-7.9 0-1.74.62-3.18 1.64-4.3-.16-.4-.72-2.04.16-4.24 0 0 1.34-.42 4.4 1.64 1.28-.36 2.64-.54 4-.54s2.72.18 4 .54c3.06-2.08 4.4-1.64 4.4-1.64.88 2.2.32 3.84.16 4.24 1.02 1.12 1.64 2.54 1.64 4.3 0 6.14-3.74 7.5-7.3 7.9.58.5 1.08 1.46 1.08 2.96 0 2.14-.02 3.86-.02 4.4 0 .42.3.92 1.1.76C27.42 29.06 32 23.06 32 16c0-8.84-7.16-16-16-16z"/></symbol></defs></svg>