<svg aria-hidden="true" style="position: absolute; width: 0; height: 0; overflow: hidden;" version="1.1" xmlns="http://www.w3.org/2000/svg" xmlns:xlink="http://www.w3.org/1999/xlink">
<defs>
<symbol id="envelope" viewBox="0 0 43 32">
<path fill="none" style="fill: var(--color3)" d="M38.667 0h-34.667c-2.205 0-4 1.795-4 4v24c0 2.205 1.795 4 4 4h34.667c2.205 0 4-1.795 4-4v-24c0-2.205-1.795-4-4-4zM38.667 2.667c0.181 0 0.355 0.037 0.512 0.104l-17.845 15.467-17.845-15.467c0.151-0.065 0.327-0.104 0.512-0.104h34.667zM38.667 29.333h-34.667c-0.736 0-1.333-0.597-1.333-1.333v0-22.413l17.792 15.421c0.233 0.203 0.539 0.327 0.875 0.327s0.642-0.124 0.876-0.328l-0.002 0.001 17.792-15.421v22.413c0 0.736-0.597 1.333-1.333 1.333v0z"></path>
</symbol>
<symbol id="facebook" viewBox="0 0 32 32">
<path fill="none" style="fill: var(--color4)" d="M21.328 5.312h2.923v-5.088c-1.232-0.143-2.66-0.224-4.108-0.224-0.052 0-0.104 0-0.156 0l0.008-0c-4.213 0-7.099 2.65-7.099 7.52v4.48h-4.646v5.688h4.646v14.312h5.699v-14.31h4.459l0.707-5.688h-5.168v-3.922c0-1.643 0.443-2.768 2.734-2.768z"></path>
</symbol>
<symbol id="instagram" viewBox="0 0 32 32">
<path fill="none" style="fill: var(--color4)" d="M31.968 9.408c-0.074-1.701-0.349-2.869-0.742-3.882-0.424-1.111-1.054-2.059-1.85-2.837l-0.001-0.001c-0.78-0.792-1.724-1.419-2.778-1.827l-0.054-0.018c-1.019-0.394-2.181-0.667-3.882-0.742-1.712-0.082-2.256-0.101-6.602-0.101-4.344 0-4.888 0.019-6.595 0.094-1.699 0.074-2.869 0.349-3.88 0.742-1.112 0.424-2.060 1.054-2.839 1.85l-0.001 0.001c-0.791 0.78-1.418 1.724-1.825 2.778l-0.018 0.054c-0.395 1.019-0.669 2.181-0.744 3.882-0.082 1.712-0.101 2.256-0.101 6.602 0 4.344 0.019 4.888 0.094 6.595 0.075 1.701 0.35 2.869 0.744 3.882 0.426 1.11 1.055 2.057 1.849 2.837l0.001 0.001c0.8 0.813 1.77 1.443 2.832 1.843 1.019 0.395 2.182 0.67 3.882 0.744 1.707 0.075 2.251 0.094 6.595 0.094 4.346 0 4.89-0.019 6.595-0.094 1.701-0.074 2.869-0.349 3.882-0.742 2.157-0.85 3.833-2.526 4.664-4.628l0.019-0.055c0.394-1.019 0.669-2.182 0.744-3.882 0.075-1.707 0.093-2.251 0.093-6.595s-0.006-4.888-0.080-6.595zM29.088 22.474c-0.070 1.563-0.333 2.406-0.55 2.97-0.552 1.399-1.64 2.486-3.004 3.024l-0.036 0.012c-0.56 0.219-1.411 0.482-2.968 0.55-1.688 0.075-2.194 0.094-6.464 0.094-4.269 0-4.782-0.019-6.464-0.094-1.563-0.069-2.406-0.331-2.97-0.55-0.721-0.269-1.334-0.676-1.836-1.192l-0.001-0.001c-0.517-0.503-0.924-1.117-1.184-1.803l-0.011-0.034c-0.218-0.563-0.48-1.413-0.549-2.97-0.075-1.688-0.094-2.195-0.094-6.464 0-4.27 0.019-4.784 0.094-6.464 0.069-1.563 0.331-2.406 0.549-2.97 0.269-0.722 0.678-1.337 1.198-1.837l0.002-0.002c0.504-0.517 1.119-0.923 1.806-1.182l0.034-0.011c0.56-0.219 1.411-0.48 2.968-0.55 1.688-0.074 2.195-0.093 6.464-0.093 4.275 0 4.782 0.019 6.464 0.093 1.563 0.069 2.406 0.331 2.97 0.55 0.693 0.256 1.325 0.662 1.837 1.194 0.531 0.52 0.938 1.144 1.195 1.84 0.218 0.56 0.48 1.411 0.549 2.968 0.075 1.688 0.094 2.194 0.094 6.464 0 4.269-0.019 4.768-0.094 6.458z"></path>
<path fill="none" style="fill: var(--color4)" d="M16.059 7.782c-4.539 0.002-8.218 3.682-8.219 8.221v0c0.091 4.471 3.737 8.060 8.221 8.060s8.13-3.589 8.221-8.052l0-0.009c-0.001-4.54-3.681-8.22-8.221-8.221h-0zM16.059 21.334c-2.945-0-5.332-2.388-5.332-5.333s2.388-5.333 5.333-5.333c0 0 0.001 0 0.001 0h-0c2.946 0 5.334 2.388 5.334 5.334s-2.388 5.334-5.334 5.334v0zM26.525 7.458c0 1.060-0.86 1.92-1.92 1.92s-1.92-0.86-1.92-1.92v0c0-1.060 0.86-1.92 1.92-1.92s1.92 0.86 1.92 1.92v0z"></path>
</symbol>
<symbol id="linkedin" viewBox="0 0 32 32">
<path d="M31.992 32h0.008v-11.738c0-5.741-1.237-10.163-7.947-10.163-3.227 0-5.392 1.77-6.277 3.45h-0.093v-2.914h-6.365v21.363h6.627v-10.578c0-2.786 0.528-5.48 3.978-5.48 3.398 0 3.448 3.179 3.448 5.658v10.402h6.621zM0.528 10.635h6.635v21.365h-6.635v-21.365zM3.843 0c-2.123 0-3.843 1.721-3.843 3.843v0c0 2.12 1.722 3.878 3.843 3.878 2.12 0 3.842-1.757 3.842-3.878s-1.72-3.841-3.841-3.843h-0z"></path>
</symbol>
<symbol id="smartphone" viewBox="0 0 20 32">
<path fill="none" style="fill: var(--color3)" d="M17 0h-14c-1.654 0-3 1.346-3 3v26c0 1.654 1.346 3 3 3h14c1.654 0 3-1.346 3-3v-26c0-1.654-1.346-3-3-3zM3 2h14c0.552 0 1 0.448 1 1v0 21h-16v-21c0-0.552 0.448-1 1-1v0zM17 30h-14c-0.552 0-1-0.448-1-1v0-3h16v3c0 0.552-0.448 1-1 1v0z"></path>
<path fill="none" style="fill: var(--color3)" d="M4.708 27.478c0.18 0.163 0.293 0.399 0.293 0.66s-0.113 0.497-0.292 0.659l-0.001 0.001c-0.186 0.17-0.435 0.275-0.708 0.275s-0.522-0.104-0.709-0.275l0.001 0.001c-0.18-0.163-0.293-0.399-0.293-0.66s0.113-0.497 0.292-0.659l0.001-0.001c0.186-0.17 0.435-0.275 0.708-0.275s0.522 0.104 0.709 0.275l-0.001-0.001z"></path>
</symbol>
<symbol id="twitter" viewBox="0 0 32 32">
<path fill="none" style="fill: var(--color4)" d="M32 6.078c-1.1 0.493-2.376 0.857-3.713 1.028l-0.068 0.007c1.36-0.817 2.382-2.078 2.873-3.579l0.013-0.046c-1.197 0.722-2.591 1.273-4.076 1.573l-0.084 0.014c-1.2-1.279-2.9-2.076-4.787-2.076-3.622 0-6.558 2.936-6.558 6.558 0 0.001 0 0.003 0 0.004v-0c0 0.52 0.043 1.021 0.152 1.496-5.454-0.266-10.28-2.88-13.522-6.861-0.564 0.949-0.899 2.092-0.902 3.313v0.001c0 2.272 1.171 4.286 2.914 5.451-1.091-0.030-2.107-0.325-2.994-0.823l0.033 0.017v0.072c0.003 3.165 2.236 5.807 5.213 6.44l0.043 0.008c-0.499 0.136-1.071 0.215-1.662 0.215-0.020 0-0.041-0-0.061-0l0.003 0c-0.419 0-0.843-0.024-1.242-0.112 0.85 2.598 3.261 4.509 6.13 4.57-2.215 1.746-5.045 2.8-8.122 2.8-0.004 0-0.008 0-0.013 0h0.001c-0.018 0-0.040 0-0.062 0-0.531 0-1.055-0.034-1.569-0.099l0.061 0.006c2.826 1.846 6.287 2.944 10.004 2.944 0.021 0 0.042-0 0.063-0h-0.003c12.072 0 18.672-10 18.672-18.669 0-0.288-0.010-0.57-0.024-0.848 1.299-0.936 2.39-2.064 3.258-3.355l0.030-0.047z"></path>
</symbol>
<symbol id="email" viewBox="0 0 16 12">
<path style="fill: var(--color4)" d="M14 0H2C1.175 0 .507.675.507 1.5l-.007 9c0 .825.675 1.5 1.5 1.5h12c.825 0 1.5-.675 1.5-1.5v-9C15.5.675 14.825 0 14 0Zm-.3 3.188L8.398 6.502a.759.759 0 0 1-.795 0L2.3 3.187a.637.637 0 1 1 .675-1.08L8 5.25l5.025-3.143a.637.637 0 1 1 .675 1.08Z" fill="#212121"/>
</symbol>
<symbol id="phone" viewBox="0 0 14 14">
<path style="fill: var(--color4)" d="m11.996 9.123-1.838-.21a1.44 1.44 0 0 0-1.187.412l-1.332 1.332a10.888 10.888 0 0 1-4.769-4.77L4.21 4.55a1.44 1.44 0 0 0 .412-1.187l-.21-1.824a1.448 1.448 0 0 0-1.44-1.28H1.72C.902.257.222.937.272 1.754c.384 6.18 5.327 11.116 11.5 11.5.817.05 1.498-.63 1.498-1.448v-1.252a1.434 1.434 0 0 0-1.274-1.432Z" fill="#212121"/>
</symbol>
<symbol id="whatsapp" viewBox="0 0 32 32">
<path style="fill: var(--color1)" d="M32 16c0 8.837-7.163 16-16 16s-16-7.163-16-16c0-8.837 7.163-16 16-16s16 7.163 16 16z"></path>
<path style="fill: var(--color1)" d="M12.828 31.68l-6.219-6.219 1.706-4.963c0 0-2.625-4.64-0.281-8.062 0 0 2.25-4.312 5.25-4.734 0 0 3.328-1.266 5.765 0 0 0 2.578 1.019 2.906 1.423h0.556l9.306 9.306c0 0-0.296 1.638-0.58 2.448 0 0-0.184 0.584-0.371 1.033 0 0-0.299 0.719-0.446 1.016 0 0-0.327 0.651-0.447 0.862 0 0-0.382 0.656-0.523 0.872 0 0-0.69 1.019-1.041 1.437 0 0-0.435 0.517-0.585 0.68 0 0-0.41 0.435-0.5 0.525 0 0-0.486 0.48-0.779 0.731 0 0-0.752 0.642-1.188 0.945 0 0-1.312 0.912-2.155 1.305 0 0-1.268 0.611-2.020 0.849 0 0-1.525 0.48-2.302 0.604 0 0-0.725 0.122-1.024 0.154 0 0-0.538 0.059-0.819 0.075 0 0-0.896 0.030-1.087 0.030 0 0-0.586-0.005-0.836-0.021 0 0-0.85-0.067-1.097-0.1 0 0-0.326-0.044-0.387-0.054 0 0-0.334-0.054-0.386-0.063 0 0-0.402-0.076-0.415-0.079z"></path>
<path style="fill: var(--color2, #000)" d="M22.678 9.294c-1.74-1.791-4.145-2.763-6.601-2.763-5.22 0-9.415 4.247-9.364 9.415 0 1.637 0.46 3.224 1.228 4.657l-1.33 4.861 4.964-1.279c1.381 0.768 2.917 1.126 4.452 1.126 5.168 0 9.364-4.247 9.364-9.416 0-2.507-0.972-4.861-2.712-6.601zM20.119 22.547c-1.177 0.768-2.61 1.177-4.042 1.177-1.382 0-2.763-0.358-3.94-1.074l-0.307-0.153-2.968 0.768 0.768-2.917-0.205-0.307c-2.251-3.633-1.177-8.443 2.507-10.695s8.443-1.177 10.695 2.507c2.252 3.684 1.177 8.443-2.507 10.694z"></path>
<path style="fill: var(--color2, #000)" d="M20.017 17.789c0 0-0.819-0.358-1.331-0.614-0.051 0-0.102-0.051-0.154-0.051-0.153 0-0.256 0.051-0.358 0.102 0 0-0.051 0.051-0.768 0.87-0.051 0.102-0.154 0.154-0.256 0.154h-0.051c-0.051 0-0.153-0.051-0.205-0.102l-0.256-0.102c-0.563-0.256-1.075-0.563-1.484-0.972-0.102-0.102-0.256-0.204-0.358-0.307-0.358-0.358-0.716-0.768-0.972-1.228l-0.051-0.102c-0.051-0.051-0.051-0.102-0.102-0.205 0-0.102 0-0.205 0.051-0.256 0 0 0.205-0.256 0.358-0.409 0.102-0.102 0.153-0.256 0.256-0.358 0.102-0.153 0.153-0.358 0.102-0.512-0.051-0.256-0.665-1.638-0.818-1.944-0.102-0.154-0.205-0.205-0.358-0.256h-0.153c-0.102 0-0.256 0-0.409 0-0.102 0-0.205 0.051-0.307 0.051l-0.051 0.051c-0.102 0.051-0.205 0.154-0.307 0.205-0.102 0.102-0.154 0.205-0.256 0.307-0.358 0.46-0.563 1.023-0.563 1.586 0 0.409 0.102 0.819 0.256 1.177l0.051 0.154c0.46 0.972 1.075 1.842 1.893 2.61l0.205 0.204c0.153 0.154 0.307 0.256 0.409 0.41 1.075 0.921 2.303 1.586 3.684 1.944 0.153 0.051 0.358 0.051 0.512 0.102 0.153 0 0.358 0 0.512 0 0.256 0 0.563-0.102 0.768-0.205 0.153-0.102 0.256-0.102 0.358-0.205l0.102-0.102c0.102-0.102 0.205-0.154 0.307-0.256s0.205-0.205 0.256-0.307c0.102-0.204 0.153-0.46 0.205-0.716 0-0.102 0-0.256 0-0.358-0 0-0.051-0.051-0.154-0.102l-0.563-0.256z"></path>
</symbol>
<symbol id="viber" viewBox="0 0 32 32">
<path d="M16 0c-8.837 0-16 7.163-16 16s7.163 16 16 16c8.837 0 16-7.163 16-16s-7.163-16-16-16zM16.958 6.517c1.088 0.136 1.967 0.398 2.932 0.868 0.949 0.464 1.556 0.903 2.359 1.702 0.753 0.755 1.17 1.326 1.613 2.214 0.617 1.238 0.968 2.709 1.028 4.329 0.022 0.553 0.006 0.676-0.12 0.834-0.24 0.306-0.769 0.256-0.949-0.088-0.057-0.114-0.073-0.212-0.092-0.654-0.032-0.679-0.079-1.118-0.174-1.642-0.373-2.056-1.36-3.698-2.935-4.876-1.312-0.985-2.669-1.465-4.447-1.569-0.601-0.035-0.705-0.057-0.841-0.161-0.253-0.199-0.266-0.666-0.022-0.884 0.149-0.136 0.253-0.155 0.769-0.139 0.269 0.009 0.664 0.041 0.879 0.066v0zM9.729 6.858c0.111 0.038 0.281 0.126 0.38 0.189 0.601 0.398 2.274 2.536 2.821 3.603 0.313 0.609 0.417 1.061 0.319 1.396-0.101 0.36-0.269 0.549-1.018 1.153-0.3 0.243-0.582 0.493-0.626 0.559-0.114 0.164-0.206 0.486-0.206 0.714 0.003 0.527 0.345 1.484 0.794 2.22 0.348 0.572 0.971 1.304 1.588 1.866 0.724 0.663 1.363 1.115 2.084 1.472 0.927 0.461 1.493 0.578 1.907 0.385 0.104-0.047 0.215-0.111 0.25-0.139 0.032-0.028 0.275-0.325 0.541-0.654 0.512-0.644 0.629-0.748 0.98-0.868 0.446-0.152 0.901-0.111 1.36 0.123 0.348 0.18 1.107 0.651 1.597 0.992 0.645 0.452 2.024 1.576 2.211 1.8 0.329 0.404 0.386 0.922 0.164 1.494-0.234 0.603-1.145 1.734-1.781 2.217-0.576 0.436-0.984 0.603-1.521 0.628-0.443 0.022-0.626-0.016-1.192-0.249-4.44-1.828-7.985-4.557-10.8-8.305-1.471-1.958-2.59-3.988-3.356-6.095-0.446-1.228-0.468-1.762-0.101-2.39 0.158-0.265 0.832-0.922 1.322-1.288 0.816-0.606 1.192-0.831 1.493-0.894 0.206-0.044 0.563-0.010 0.791 0.073v0zM17.176 8.807c1.92 0.281 3.406 1.172 4.38 2.618 0.547 0.815 0.889 1.772 1.006 2.798 0.041 0.376 0.041 1.061-0.003 1.175-0.041 0.107-0.174 0.253-0.288 0.313-0.123 0.063-0.386 0.057-0.531-0.019-0.244-0.123-0.316-0.319-0.316-0.849 0-0.818-0.212-1.68-0.579-2.349-0.417-0.764-1.025-1.396-1.765-1.835-0.636-0.379-1.575-0.66-2.432-0.729-0.31-0.025-0.481-0.088-0.598-0.224-0.18-0.205-0.199-0.483-0.047-0.714 0.164-0.256 0.417-0.297 1.173-0.183v0zM17.85 11.191c0.623 0.133 1.101 0.369 1.509 0.752 0.525 0.496 0.813 1.096 0.939 1.958 0.085 0.562 0.051 0.783-0.149 0.966-0.187 0.171-0.531 0.177-0.74 0.016-0.152-0.114-0.199-0.234-0.234-0.559-0.041-0.433-0.117-0.736-0.247-1.017-0.278-0.597-0.769-0.906-1.597-1.007-0.389-0.047-0.506-0.092-0.633-0.24-0.231-0.275-0.142-0.72 0.177-0.884 0.12-0.060 0.171-0.066 0.436-0.051 0.164 0.009 0.408 0.038 0.538 0.066v0z"></path>
</symbol>
<symbol id="telegram" viewBox="0 0 32 32">
<path d="M16 2.667c-7.333 0-13.333 6-13.333 13.333s6 13.333 13.333 13.333 13.333-6 13.333-13.333-6-13.333-13.333-13.333zM22.533 10.8l-2.267 10.933c-0.133 0.8-0.667 0.933-1.2 0.533l-3.467-2.667c-0.8 0.8-1.6 1.467-1.733 1.733-0.267 0.133-0.4 0.4-0.667 0.4-0.4 0-0.4-0.267-0.533-0.533l-1.2-4-3.6-1.2c-0.8-0.267-0.8-0.8 0.133-1.2l13.6-5.2c0.533-0.133 1.2 0.133 0.933 1.2zM19.333 12l-7.6 4.8 1.2 4 0.267-2.667 6.533-5.867c0.4-0.4 0.133-0.4-0.4-0.267z"></path>
</symbol>
</defs>
</svg>
