<svg aria-hidden="true" style="position: absolute; width: 0; height: 0; overflow: hidden;" version="1.1" xmlns="http://www.w3.org/2000/svg" xmlns:xlink="http://www.w3.org/1999/xlink">
<defs>
<symbol id="icon-VSCode" viewBox="0 0 32 32">
<path fill="#0065a9" style="fill: var(--color1, #0065a9)" d="M30.868 3.455l-6.593-3.175c-0.763-0.367-1.675-0.212-2.274 0.387l-21.584 19.68c-0.581 0.529-0.58 1.443 0.001 1.972l1.763 1.603c0.475 0.432 1.191 0.464 1.703 0.076l25.993-19.719c0.872-0.662 2.125-0.040 2.125 1.055v-0.077c0-0.768-0.44-1.469-1.132-1.802z"></path>
<path fill="#007acc" style="fill: var(--color2, #007acc)" d="M30.868 28.545l-6.593 3.175c-0.763 0.368-1.675 0.212-2.274-0.387l-21.584-19.68c-0.581-0.529-0.58-1.443 0.001-1.972l1.763-1.603c0.475-0.432 1.191-0.464 1.703-0.076l25.993 19.719c0.872 0.662 2.125 0.040 2.125-1.055v0.077c0 0.768-0.44 1.469-1.132 1.802z"></path>
<path fill="#1f9cf0" style="fill: var(--color3, #1f9cf0)" d="M24.274 31.72c-0.763 0.367-1.675 0.212-2.274-0.387 0.738 0.738 2 0.215 2-0.828v-29.010c0-1.044-1.262-1.566-2-0.828 0.599-0.599 1.511-0.754 2.274-0.387l6.592 3.17c0.693 0.333 1.133 1.034 1.133 1.802v21.496c0 0.769-0.441 1.469-1.133 1.802l-6.592 3.17z"></path>
<path fill="#000" style="fill: var(--color4, #000)" opacity="0.25" d="M22.672 31.781c-0.252-0.098-0.486-0.248-0.686-0.448l-12.612-11.507-5.494 4.17c-0.511 0.388-1.227 0.356-1.702-0.076l-1.762-1.603c-0.581-0.528-0.582-1.442-0.001-1.972l4.764-4.347-4.764-4.347c-0.58-0.529-0.58-1.443 0.001-1.972l1.762-1.603c0.475-0.432 1.19-0.464 1.702-0.076l5.494 4.17 12.612-11.507c0.075-0.075 0.155-0.143 0.238-0.204 0.586-0.426 1.367-0.505 2.035-0.183l6.588 3.17c0.692 0.333 1.133 1.034 1.133 1.802v21.496c0 0.769-0.44 1.469-1.133 1.802l-6.588 3.17c-0.509 0.245-1.083 0.257-1.587 0.061zM23.985 8.736l-9.57 7.264 9.57 7.264v-14.529z"></path>
</symbol>
<symbol id="icon-Node" viewBox="0 0 32 32">
<path fill="#689f63" style="fill: var(--color5, #689f63)" d="M15.812 25.803c-0.106 0-0.21-0.028-0.303-0.081l-0.964-0.571c-0.144-0.081-0.074-0.109-0.026-0.125 0.192-0.067 0.231-0.082 0.436-0.199 0.022-0.012 0.050-0.008 0.072 0.005l0.741 0.44c0.027 0.014 0.065 0.014 0.090 0l2.889-1.668c0.027-0.015 0.044-0.046 0.044-0.078v-3.334c0-0.033-0.017-0.063-0.045-0.080l-2.888-1.666c-0.027-0.016-0.062-0.016-0.089 0l-2.887 1.666c-0.028 0.016-0.046 0.047-0.046 0.079v3.334c0 0.032 0.017 0.062 0.045 0.077l0.791 0.457c0.43 0.215 0.692-0.038 0.692-0.293v-3.29c0-0.047 0.037-0.083 0.084-0.083h0.366c0.046 0 0.083 0.036 0.083 0.083v3.292c0 0.573-0.312 0.902-0.855 0.902-0.167 0-0.299 0-0.666-0.181l-0.758-0.437c-0.187-0.108-0.303-0.311-0.303-0.527v-3.334c0-0.217 0.116-0.419 0.303-0.526l2.892-1.668c0.183-0.103 0.426-0.103 0.607 0l2.888 1.669c0.187 0.108 0.303 0.309 0.303 0.526v3.334c0 0.216-0.116 0.418-0.303 0.526l-2.888 1.668c-0.093 0.053-0.197 0.081-0.304 0.081z"></path>
<path fill="#689f63" style="fill: var(--color5, #689f63)" d="M16.704 23.506c-1.264 0-1.529-0.58-1.529-1.067 0-0.046 0.037-0.083 0.084-0.083h0.373c0.041 0 0.076 0.030 0.082 0.071 0.056 0.38 0.224 0.572 0.989 0.572 0.609 0 0.868-0.138 0.868-0.46 0-0.186-0.074-0.324-1.020-0.417-0.791-0.078-1.28-0.252-1.28-0.885 0-0.583 0.492-0.93 1.315-0.93 0.925 0 1.383 0.321 1.441 1.011 0.002 0.024-0.006 0.047-0.022 0.064s-0.038 0.027-0.061 0.027h-0.375c-0.039 0-0.073-0.027-0.081-0.065-0.090-0.4-0.309-0.528-0.902-0.528-0.665 0-0.742 0.231-0.742 0.405 0 0.21 0.091 0.272 0.988 0.39 0.888 0.118 1.31 0.284 1.31 0.908 0 0.629-0.525 0.99-1.441 0.99zM20.219 19.973h0.097c0.080 0 0.095-0.056 0.095-0.088 0-0.085-0.059-0.085-0.091-0.085h-0.1zM20.101 19.7h0.215c0.074 0 0.218 0 0.218 0.165 0 0.115-0.074 0.139-0.118 0.153 0.086 0.006 0.092 0.062 0.103 0.142 0.006 0.050 0.015 0.136 0.033 0.165h-0.132c-0.004-0.029-0.024-0.188-0.024-0.197-0.009-0.035-0.021-0.053-0.065-0.053h-0.109v0.25h-0.121zM19.843 20.011c0 0.259 0.209 0.469 0.466 0.469 0.259 0 0.468-0.214 0.468-0.469 0-0.26-0.212-0.466-0.469-0.466-0.253 0-0.466 0.203-0.466 0.465zM20.866 20.013c0 0.307-0.251 0.557-0.557 0.557-0.304 0-0.557-0.247-0.557-0.557 0-0.315 0.259-0.557 0.557-0.557 0.3 0 0.556 0.242 0.556 0.557z"></path>
<path fill="#333" style="fill: var(--color6, #333)" d="M6.865 12.758c0-0.133-0.070-0.255-0.185-0.321l-3.063-1.762c-0.052-0.030-0.11-0.046-0.168-0.048h-0.032c-0.059 0.002-0.117 0.018-0.169 0.048l-3.063 1.762c-0.114 0.067-0.185 0.189-0.185 0.322l0.007 4.747c0 0.066 0.034 0.127 0.092 0.16 0.056 0.035 0.127 0.035 0.184 0l1.821-1.043c0.115-0.068 0.185-0.189 0.185-0.321v-2.218c0-0.132 0.070-0.255 0.185-0.32l0.775-0.446c0.058-0.033 0.121-0.050 0.185-0.050 0.063 0 0.128 0.016 0.184 0.050l0.775 0.446c0.115 0.066 0.185 0.188 0.185 0.32v2.217c0 0.132 0.071 0.253 0.186 0.321l1.82 1.042c0.057 0.034 0.128 0.034 0.185 0 0.056-0.033 0.092-0.094 0.092-0.16zM21.319 15.23c0 0.033-0.018 0.064-0.046 0.080l-1.052 0.606c-0.029 0.016-0.064 0.016-0.092 0l-1.052-0.606c-0.029-0.016-0.046-0.047-0.046-0.080v-1.215c0-0.033 0.017-0.064 0.046-0.080l1.051-0.607c0.029-0.017 0.064-0.017 0.093 0l1.052 0.607c0.029 0.017 0.046 0.047 0.046 0.080zM21.603 6.234c-0.057-0.032-0.127-0.031-0.184 0.002s-0.091 0.094-0.091 0.16v4.701c0 0.046-0.025 0.089-0.065 0.112s-0.089 0.023-0.129 0l-0.767-0.442c-0.114-0.066-0.255-0.066-0.37 0l-3.064 1.768c-0.114 0.066-0.185 0.188-0.185 0.32v3.538c0 0.132 0.071 0.254 0.185 0.32l3.064 1.77c0.114 0.066 0.255 0.066 0.37 0l3.064-1.77c0.114-0.067 0.185-0.188 0.185-0.32v-8.817c0-0.134-0.073-0.258-0.19-0.323zM31.807 13.983c0.114-0.066 0.184-0.188 0.184-0.32v-0.857c0-0.132-0.070-0.254-0.184-0.32l-3.045-1.767c-0.115-0.067-0.256-0.067-0.371 0l-3.063 1.768c-0.115 0.067-0.185 0.188-0.185 0.32v3.536c0 0.133 0.072 0.256 0.187 0.322l3.044 1.735c0.112 0.064 0.25 0.065 0.363 0.002l1.841-1.023c0.058-0.033 0.095-0.094 0.095-0.161s-0.035-0.129-0.093-0.161l-3.082-1.769c-0.058-0.033-0.093-0.094-0.093-0.16v-1.109c0-0.066 0.035-0.127 0.093-0.16l0.959-0.553c0.057-0.033 0.127-0.033 0.184 0l0.96 0.553c0.057 0.033 0.093 0.094 0.093 0.16v0.872c0 0.066 0.035 0.127 0.093 0.161s0.128 0.033 0.185-0.001z"></path>
<path fill="#689f63" style="fill: var(--color5, #689f63)" d="M28.532 13.818c0.022-0.013 0.049-0.013 0.071 0l0.588 0.339c0.022 0.013 0.035 0.036 0.035 0.061v0.679c0 0.025-0.013 0.049-0.035 0.061l-0.588 0.339c-0.022 0.013-0.049 0.013-0.071 0l-0.588-0.339c-0.022-0.013-0.036-0.036-0.036-0.061v-0.679c0-0.025 0.013-0.049 0.035-0.061z"></path>
<path fill="#000" style="fill: var(--color4, #000)" d="M18.3 12.196l-8.585-4.208-4.402 8.98 8.585 4.208z"></path>
<path fill="#000" style="fill: var(--color4, #000)" d="M4.756 13.441l6.062 8.205 8.017-5.923-6.062-8.204z"></path>
<path fill="#000" style="fill: var(--color4, #000)" d="M8.585 10.688v7.769h6.63v-7.769z"></path>
</symbol>
<symbol id="icon-React" viewBox="0 0 32 32">
<path fill="#61dafb" style="fill: var(--color7, #61dafb)" d="M18.852 16.322c0 1.575-1.277 2.852-2.852 2.852s-2.852-1.277-2.852-2.852c0-1.575 1.277-2.852 2.852-2.852s2.852 1.277 2.852 2.852z"></path>
<path fill="none" stroke="#61dafb" style="stroke: var(--color7, #61dafb)" stroke-linejoin="miter" stroke-linecap="butt" stroke-miterlimit="4" stroke-width="1.3913" d="M31.304 16.322c0 3.227-6.852 5.843-15.304 5.843s-15.304-2.616-15.304-5.843c0-3.227 6.852-5.843 15.304-5.843s15.304 2.616 15.304 5.843z"></path>
<path fill="none" stroke="#61dafb" style="stroke: var(--color7, #61dafb)" stroke-linejoin="miter" stroke-linecap="butt" stroke-miterlimit="4" stroke-width="1.3913" d="M23.652 29.576c-2.795 1.614-8.487-3.012-12.713-10.332s-5.386-14.562-2.592-16.176c2.795-1.614 8.487 3.012 12.713 10.332s5.386 14.562 2.592 16.176z"></path>
<path fill="none" stroke="#61dafb" style="stroke: var(--color7, #61dafb)" stroke-linejoin="miter" stroke-linecap="butt" stroke-miterlimit="4" stroke-width="1.3913" d="M8.348 29.576c-2.795-1.614-1.635-8.856 2.592-16.176s9.918-11.946 12.713-10.332c2.795 1.614 1.635 8.856-2.592 16.176s-9.918 11.946-12.713 10.332z"></path>
</symbol>
<symbol id="icon-Javascript" viewBox="0 0 32 32">
<path fill="#101010" style="fill: var(--color8, #101010)" opacity="0.85" d="M23.375 0.013c0.354-0.005 0.711-0.010 1.068-0.013 0.005 0.198 0.013 0.59 0.018 0.787-0.365 0-0.729-0.003-1.091-0.003 0-0.192 0.005-0.577 0.005-0.772z"></path>
<path fill="#131313" style="fill: var(--color9, #131313)" d="M1.745 0.175c0.651 0.005 1.304 0.008 1.96 0.010-0.056 1.165 0.172 2.375-0.157 3.509-0.425 0.815-1.484 0.656-2.246 0.671-0.030-0.258-0.061-0.516-0.089-0.775 0.438-0.035 0.914 0.051 1.317-0.175 0.261-0.808 0.144-1.671 0.079-2.502-0.223 0.005-0.666 0.010-0.889 0.013 0.008-0.187 0.018-0.565 0.025-0.752z"></path>
<path fill="#131313" style="fill: var(--color9, #131313)" d="M14.782 0.494c0.767-0.592 1.775-0.349 2.628-0.119-0.003 0.225-0.005 0.676-0.005 0.901-0.661-0.266-1.917-0.846-2.084 0.248 0.625 0.19 1.286 0.301 1.853 0.641 0.603 0.491 0.433 1.608-0.261 1.945-0.79 0.468-1.727 0.213-2.56 0.043-0.048-0.347-0.096-0.691-0.139-1.038 0.701 0.309 2.122 1.041 2.332-0.142-0.704-0.266-1.58-0.304-2.091-0.911-0.225-0.516-0.187-1.236 0.327-1.567z"></path>
<path fill="#131313" style="fill: var(--color9, #131313)" d="M28.781 0.319c0.296 0 0.595 0 0.896 0 0.008 0.286 0.018 0.572 0.030 0.858 0.228 0.003 0.686 0.008 0.917 0.010 0.005 0.175 0.013 0.522 0.018 0.694-0.233-0.003-0.699-0.008-0.932-0.013 0.013 0.58-0.137 1.213 0.154 1.747 0.218 0.023 0.653 0.066 0.871 0.089-0.023 1.066-1.238 0.582-1.881 0.415-0.058-0.651-0.086-1.301-0.086-1.955-0.165-0.23-0.329-0.463-0.491-0.694 0.124-0.114 0.372-0.342 0.496-0.456 0.003-0.175 0.005-0.524 0.008-0.696z"></path>
<path fill="#131313" style="fill: var(--color9, #131313)" d="M4.495 1.21c0.825-0.043 1.98-0.349 2.499 0.504 0.185 0.846 0.068 1.724 0.096 2.585-0.37-0.033-0.739-0.068-1.106-0.101-0.42 0.035-0.914 0.347-1.301 0.068-0.643-0.309-0.653-1.448 0.023-1.724 0.491-0.203 1.028-0.238 1.542-0.36-0.489-0.506-1.182-0.314-1.798-0.248 0.013-0.182 0.035-0.544 0.046-0.724zM5.3 2.95c-0.028 0.246-0.053 0.491-0.076 0.739 0.281-0.015 0.562-0.028 0.846-0.043 0.020-0.266 0.043-0.532 0.066-0.798-0.281 0.033-0.56 0.068-0.836 0.101z"></path>
<path fill="#131313" style="fill: var(--color9, #131313)" d="M7.468 1.122c0.243 0.048 0.732 0.144 0.975 0.192 0.256 0.587 0.43 1.205 0.679 1.798 0.208-0.633 0.4-1.274 0.587-1.914 0.243-0.005 0.732-0.013 0.975-0.018-0.344 1.086-0.729 2.16-1.16 3.218-0.334-0.043-0.663-0.114-0.982-0.208-0.461-0.982-0.765-2.031-1.074-3.069z"></path>
<path fill="#131313" style="fill: var(--color9, #131313)" d="M10.997 1.929c0.071-0.241 0.152-0.481 0.241-0.717 0.785-0.114 1.848-0.281 2.388 0.453 0.185 0.876 0.071 1.782 0.089 2.671-0.372-0.051-0.742-0.101-1.111-0.152-0.663 0.352-1.77 0.225-1.755-0.709-0.127-1.109 1.258-1.124 2.010-1.271-0.453-0.608-1.238-0.286-1.861-0.276zM11.914 2.972c-0.028 0.228-0.053 0.458-0.079 0.686 0.278 0.008 0.557 0.015 0.838 0.020 0.025-0.281 0.051-0.56 0.076-0.841-0.278 0.043-0.557 0.089-0.836 0.134z"></path>
<path fill="#131313" style="fill: var(--color9, #131313)" d="M17.77 2.757c-0.078-1.377 1.674-2.099 2.722-1.365 0.025 0.195 0.073 0.587 0.096 0.782-0.481-0.152-0.975-0.496-1.491-0.263-0.547 0.522-0.433 1.846 0.494 1.767 0.256-0.081 0.765-0.243 1.020-0.324-0.046 0.218-0.134 0.653-0.177 0.868-1.096 0.516-2.75-0.094-2.664-1.466z"></path>
<path fill="#131313" style="fill: var(--color9, #131313)" d="M21.008 1.111c0.38 0.101 0.767 0.203 1.149 0.311 0.286-0.104 0.575-0.205 0.866-0.309 0.013 0.243 0.043 0.729 0.058 0.972-0.365 0.018-0.729 0.035-1.089 0.053-0.025 0.727-0.033 1.451-0.038 2.177-0.238 0.003-0.717 0.005-0.955 0.008-0.013-1.071-0.015-2.142 0.008-3.213z"></path>
<path fill="#131313" style="fill: var(--color9, #131313)" d="M25.125 1.18c0.699 0.157 1.403 0.109 2.099-0.030 1.091 0.225 1.117 1.772 0.701 2.583-0.344 0.699-1.187 0.633-1.838 0.598 0.005 0.37 0.010 0.737 0.015 1.106-0.243-0.003-0.734-0.008-0.98-0.013 0-1.413-0.003-2.828 0.003-4.243zM26.112 1.924c-0.010 0.59-0.015 1.182-0.010 1.772 0.314-0.086 0.719-0.025 0.957-0.296 0.177-0.481 0.038-1 0.003-1.496-0.317 0.005-0.633 0.013-0.949 0.020z"></path>
<path fill="#131313" style="fill: var(--color9, #131313)" d="M23.467 1.187c0.225 0 0.676 0 0.899 0 0.015 1.046 0.015 2.089 0 3.134-0.225 0-0.673 0-0.899 0-0.018-1.043-0.018-2.089 0-3.134z"></path>
<path fill="#d6ba32" style="fill: var(--color10, #d6ba32)" d="M4.68 6.355c2.524-0.106 5.054 0.030 7.58-0.013 2.788-0.089 5.573-0.015 8.363-0.005 2.213 0.005 4.426-0.010 6.639 0.008-0.696 7.679-1.398 15.358-2.043 23.043-2.965 0.843-5.932 1.674-8.897 2.512-0.38 0.157-0.77 0.010-1.134-0.089-2.818-0.81-5.636-1.613-8.459-2.393-0.734-7.682-1.425-15.371-2.048-23.063zM16.018 8.358c-0.104 3.788-0.015 7.575-0.046 11.363 0.028 3.464-0.051 6.93 0.040 10.393 2.491-0.587 4.95-1.309 7.408-2.020 0.618-6.575 1.22-13.151 1.737-19.734-3.046-0.030-6.094 0.005-9.14-0.003zM12.848 23.149c-1.463-0.4-2.909-0.861-4.393-1.177-0.043 0.881-0.028 1.762 0.073 2.638 2.172 0.529 4.299 1.225 6.474 1.744 0.015-5.016-0.008-10.034 0.010-15.050-0.709-0.018-1.418-0.028-2.127-0.043-0.081 3.96-0.005 7.925-0.038 11.887z"></path>
<path fill="#ffda3e" style="fill: var(--color11, #ffda3e)" d="M16.018 8.358c3.046 0.008 6.094-0.028 9.14 0.003-0.517 6.583-1.119 13.158-1.737 19.734-2.458 0.711-4.917 1.433-7.408 2.020-0.091-3.464-0.013-6.93-0.040-10.393 0.030-3.788-0.058-7.575 0.046-11.363zM16.871 11.302c0.010 3.261 0.013 6.525 0 9.786 1.489-0.241 2.972-0.517 4.456-0.787-0.023 0.76-0.053 1.519-0.086 2.279-1.446 0.385-2.889 0.782-4.342 1.139-0.023 0.876-0.025 1.752-0.018 2.631 1.831-0.41 3.633-0.927 5.451-1.385 0.228-0.106 0.666-0.094 0.646-0.451 0.22-2.345 0.357-4.699 0.57-7.049-1.506 0.124-2.998 0.377-4.504 0.481-0.013-1.332-0.015-2.664 0.005-3.995 1.585 0 3.167 0 4.752 0.003 0.101-0.889 0.19-1.78 0.258-2.671-2.395 0.010-4.793-0.023-7.188 0.020z"></path>
<path fill="#ebebeb" style="fill: var(--color12, #ebebeb)" d="M12.848 23.149c0.033-3.962-0.043-7.927 0.038-11.887 0.709 0.015 1.418 0.025 2.127 0.043-0.018 5.016 0.005 10.034-0.010 15.050-2.175-0.519-4.302-1.215-6.474-1.744-0.101-0.876-0.116-1.757-0.073-2.638 1.484 0.317 2.929 0.777 4.393 1.177z"></path>
</symbol>
<symbol id="icon-CSS3" viewBox="0 0 32 32">
<path fill="#264de4" style="fill: var(--color13, #264de4)" d="M27.416 6.311l-2.072 23.217-9.316 2.583-9.29-2.579-2.070-23.221z"></path>
<path fill="#2965f1" style="fill: var(--color14, #2965f1)" d="M23.569 28.049l1.771-19.84h-9.299v21.927z"></path>
<path fill="#ebebeb" style="fill: var(--color12, #ebebeb)" d="M9.413 16.822l0.255 2.848h6.373v-2.848z"></path>
<path fill="#ebebeb" style="fill: var(--color12, #ebebeb)" d="M16.041 11.057h-7.141l0.259 2.848h6.882z"></path>
<path fill="#ebebeb" style="fill: var(--color12, #ebebeb)" d="M16.041 27.181v-2.963l-0.012 0.003-3.172-0.856-0.203-2.271h-2.859l0.399 4.472 5.834 1.62z"></path>
<path fill="#000" style="fill: var(--color4, #000)" d="M10.021 0h3.449v1.442h-2.007v1.442h2.007v1.442h-3.449z"></path>
<path fill="#000" style="fill: var(--color4, #000)" d="M14.16 0h3.449v1.254h-2.007v0.251h2.007v2.885h-3.449v-1.317h2.007v-0.251h-2.007z"></path>
<path fill="#000" style="fill: var(--color4, #000)" d="M18.299 0h3.449v1.254h-2.007v0.251h2.007v2.885h-3.449v-1.317h2.007v-0.251h-2.007z"></path>
<path fill="#fff" style="fill: var(--color15, #fff)" d="M19.538 19.669l-0.331 3.694-3.176 0.857v2.963l5.838-1.618 0.043-0.481 0.669-7.498 0.070-0.765 0.514-5.764h-7.134v2.848h4.013l-0.259 2.916h-3.754v2.848z"></path>
</symbol>
<symbol id="icon-HTML5" viewBox="0 0 32 32">
<path fill="#000" style="fill: var(--color4, #000)" d="M6.775 0h1.438v1.425h1.325v-1.425h1.438v4.313h-1.438v-1.438h-1.313v1.438h-1.45zM12.875 1.438h-1.269v-1.438h3.981v1.438h-1.275v2.875h-1.438zM16.219 0h1.506l0.925 1.519 0.925-1.519h1.506v4.313h-1.438v-2.138l-1.006 1.55-1.006-1.55v2.138h-1.413zM21.794 0h1.438v2.888h2.038v1.425h-3.475z"></path>
<path fill="#e44d26" style="fill: var(--color16, #e44d26)" d="M6.725 29.438l-2.063-23.15h22.675l-2.063 23.137-9.294 2.575z"></path>
<path fill="#f16529" style="fill: var(--color17, #f16529)" d="M16 30.031v-21.844h9.269l-1.769 19.75z"></path>
<path fill="#ebebeb" style="fill: var(--color12, #ebebeb)" d="M8.875 11.019h7.125v2.838h-4.012l0.262 2.906h3.75v2.831h-6.35zM9.775 21.019h2.85l0.2 2.269 3.175 0.85v2.962l-5.825-1.625z"></path>
<path fill="#fff" style="fill: var(--color15, #fff)" d="M23.1 11.019h-7.113v2.838h6.85zM22.581 16.762h-6.594v2.837h3.5l-0.331 3.688-3.169 0.85v2.95l5.813-1.613z"></path>
</symbol>
<symbol id="icon-Mongodb" viewBox="0 0 32 32">
<path fill="#8e714e" style="fill: var(--color18, #8e714e)" d="M29.795 15.216c-0.029 0.006-0.058 0.069-0.058 0.104-0.006 0.231-0.012 0.842-0.012 1.257 0 0.012 0.017 0.035 0.035 0.035 0.087 0.006 0.294 0.012 0.473 0.012 0.248 0 0.392-0.035 0.473-0.069 0.208-0.104 0.306-0.329 0.306-0.577 0-0.559-0.392-0.773-0.975-0.773-0.040-0.006-0.156-0.006-0.242 0.012zM31.283 17.795c0-0.571-0.421-0.888-1.182-0.888-0.035 0-0.277-0.006-0.335 0.006-0.017 0.006-0.040 0.017-0.040 0.035 0 0.409-0.006 1.061 0.012 1.315 0.012 0.11 0.092 0.265 0.19 0.311 0.104 0.058 0.34 0.069 0.502 0.069 0.456 0 0.854-0.254 0.854-0.848zM28.618 14.899c0.058 0 0.231 0.017 0.675 0.017 0.421 0 0.756-0.011 1.165-0.011 0.502 0 1.194 0.179 1.194 0.929 0 0.369-0.26 0.663-0.6 0.807-0.017 0.006-0.017 0.017 0 0.023 0.484 0.121 0.911 0.421 0.911 0.986 0 0.554-0.346 0.906-0.848 1.125-0.306 0.133-0.686 0.179-1.073 0.179-0.294 0-1.084-0.035-1.523-0.023-0.046-0.017 0.040-0.225 0.081-0.26 0.104-0.006 0.185-0.012 0.294-0.046 0.156-0.040 0.173-0.087 0.196-0.323 0.012-0.202 0.012-0.917 0.012-1.425 0-0.698 0.006-1.171 0-1.402-0.006-0.179-0.069-0.236-0.196-0.271-0.098-0.017-0.26-0.040-0.392-0.058-0.029-0.029 0.069-0.225 0.104-0.248zM25.29 18.487c0.139 0.11 0.41 0.156 0.652 0.156 0.311 0 0.623-0.058 0.923-0.329 0.306-0.277 0.519-0.704 0.519-1.384 0-0.652-0.248-1.182-0.756-1.494-0.288-0.179-0.657-0.254-1.084-0.254-0.127 0-0.248 0.006-0.323 0.040-0.017 0.012-0.058 0.063-0.058 0.092-0.012 0.115-0.012 1.004-0.012 1.523 0 0.536 0 1.286 0.012 1.373 0 0.087 0.040 0.219 0.127 0.277zM23.981 14.899c0.11 0 0.531 0.017 0.733 0.017 0.363 0 0.623-0.017 1.309-0.017 0.577 0 1.061 0.156 1.407 0.45 0.421 0.363 0.64 0.865 0.64 1.477 0 0.871-0.398 1.373-0.796 1.661-0.398 0.294-0.917 0.467-1.655 0.467-0.392 0-1.067-0.012-1.627-0.017h-0.006c-0.029-0.052 0.046-0.254 0.092-0.259 0.15-0.017 0.19-0.023 0.265-0.052 0.121-0.046 0.144-0.11 0.162-0.323 0.017-0.398 0.012-0.877 0.012-1.419 0-0.386 0.006-1.142-0.006-1.384-0.017-0.202-0.104-0.254-0.277-0.288-0.087-0.017-0.202-0.040-0.363-0.058-0.023-0.040 0.081-0.219 0.11-0.254z"></path>
<path fill="#442d22" style="fill: var(--color19, #442d22)" d="M17.002 18.712c-0.144-0.017-0.248-0.040-0.375-0.098-0.017-0.012-0.046-0.069-0.046-0.092-0.012-0.202-0.012-0.779-0.012-1.165 0-0.311-0.052-0.583-0.185-0.773-0.156-0.219-0.381-0.346-0.669-0.346-0.254 0-0.594 0.173-0.877 0.415-0.006 0.006-0.052 0.046-0.046-0.017 0-0.063 0.012-0.19 0.017-0.277 0.006-0.081-0.040-0.121-0.040-0.121-0.185 0.092-0.704 0.213-0.894 0.231-0.138 0.029-0.173 0.162-0.029 0.208h0.006c0.156 0.046 0.259 0.098 0.34 0.15 0.058 0.046 0.052 0.11 0.052 0.162 0.006 0.433 0.006 1.096-0.011 1.459-0.006 0.144-0.046 0.196-0.15 0.219l0.012-0.006c-0.081 0.017-0.144 0.035-0.242 0.046-0.035 0.035-0.035 0.219 0 0.26 0.063 0 0.398-0.017 0.675-0.017 0.381 0 0.577 0.017 0.675 0.017 0.040-0.046 0.052-0.219 0.029-0.26-0.11-0.006-0.19-0.017-0.265-0.040-0.104-0.023-0.133-0.075-0.139-0.196-0.011-0.306-0.011-0.952-0.011-1.39 0-0.121 0.035-0.179 0.069-0.213 0.133-0.115 0.346-0.196 0.536-0.196 0.185 0 0.306 0.058 0.398 0.133 0.127 0.104 0.167 0.254 0.185 0.363 0.029 0.248 0.017 0.738 0.017 1.165 0 0.231-0.017 0.288-0.104 0.317-0.040 0.017-0.144 0.040-0.265 0.052-0.040 0.040-0.029 0.219 0 0.26 0.167 0 0.363-0.017 0.652-0.017 0.358 0 0.588 0.017 0.681 0.017 0.029-0.035 0.040-0.202 0.017-0.248zM18.6 16.508c-0.306 0-0.496 0.236-0.496 0.605 0 0.375 0.167 0.808 0.64 0.808 0.081 0 0.231-0.035 0.3-0.115 0.11-0.104 0.185-0.311 0.185-0.531 0-0.479-0.236-0.767-0.629-0.767zM18.559 19.058c-0.115 0-0.196 0.035-0.248 0.064-0.242 0.156-0.352 0.306-0.352 0.485 0 0.167 0.063 0.3 0.202 0.415 0.167 0.144 0.398 0.213 0.692 0.213 0.588 0 0.848-0.317 0.848-0.629 0-0.219-0.11-0.363-0.334-0.444-0.162-0.069-0.456-0.104-0.808-0.104zM18.6 20.557c-0.352 0-0.606-0.075-0.825-0.242-0.213-0.162-0.306-0.404-0.306-0.571 0-0.046 0.012-0.173 0.115-0.288 0.063-0.069 0.202-0.202 0.531-0.427 0.012-0.006 0.017-0.012 0.017-0.023s-0.012-0.023-0.023-0.029c-0.271-0.104-0.352-0.271-0.375-0.363v-0.012c-0.006-0.035-0.017-0.069 0.035-0.104 0.040-0.029 0.098-0.063 0.161-0.104 0.098-0.058 0.202-0.121 0.265-0.173 0.012-0.012 0.012-0.023 0.012-0.035s-0.012-0.023-0.023-0.029c-0.404-0.133-0.605-0.433-0.605-0.883 0-0.294 0.133-0.559 0.369-0.727 0.162-0.127 0.565-0.283 0.831-0.283h0.017c0.271 0.006 0.421 0.063 0.634 0.138 0.115 0.040 0.225 0.058 0.375 0.058 0.225 0 0.323-0.069 0.404-0.15 0.006 0.012 0.017 0.040 0.023 0.115s-0.017 0.185-0.075 0.265c-0.046 0.063-0.15 0.11-0.254 0.11h-0.029c-0.104-0.012-0.15-0.023-0.15-0.023l-0.023 0.012c-0.006 0.012 0 0.023 0.006 0.040l0.006 0.012c0.012 0.052 0.035 0.208 0.035 0.248 0 0.473-0.19 0.68-0.392 0.836-0.196 0.144-0.421 0.236-0.675 0.26-0.006 0-0.029 0-0.081 0.006-0.029 0-0.069 0.006-0.075 0.006h-0.006c-0.046 0.012-0.161 0.069-0.161 0.167 0 0.087 0.052 0.19 0.3 0.208 0.052 0.006 0.104 0.006 0.162 0.012 0.329 0.023 0.738 0.052 0.929 0.115 0.265 0.098 0.433 0.334 0.433 0.617 0 0.427-0.306 0.825-0.813 1.073-0.248 0.11-0.496 0.167-0.767 0.167zM21.887 16.537c-0.121 0-0.231 0.029-0.311 0.086-0.225 0.138-0.34 0.415-0.34 0.819 0 0.756 0.381 1.286 0.923 1.286 0.162 0 0.288-0.046 0.398-0.138 0.167-0.139 0.254-0.415 0.254-0.802 0-0.75-0.375-1.252-0.923-1.252zM21.991 19.006c-0.98 0-1.332-0.721-1.332-1.396 0-0.473 0.19-0.836 0.571-1.096 0.271-0.167 0.594-0.259 0.883-0.259 0.75 0 1.275 0.536 1.275 1.309 0 0.525-0.208 0.94-0.606 1.194-0.19 0.127-0.519 0.248-0.79 0.248h0zM11.713 16.537c-0.121 0-0.231 0.029-0.312 0.087-0.225 0.138-0.34 0.415-0.34 0.819 0 0.756 0.381 1.286 0.923 1.286 0.162 0 0.288-0.046 0.398-0.138 0.167-0.139 0.254-0.415 0.254-0.802 0-0.75-0.369-1.252-0.923-1.252zM11.817 19.006c-0.98 0-1.332-0.721-1.332-1.396 0-0.473 0.19-0.836 0.571-1.096 0.271-0.167 0.594-0.259 0.883-0.259 0.75 0 1.275 0.536 1.275 1.309 0 0.525-0.208 0.94-0.606 1.194-0.185 0.127-0.513 0.248-0.79 0.248zM5.225 18.948c-0.012-0.017-0.023-0.069-0.017-0.133 0-0.046 0.012-0.075 0.017-0.087 0.121-0.017 0.185-0.035 0.254-0.052 0.115-0.029 0.162-0.092 0.167-0.236 0.017-0.346 0.017-1.004 0.012-1.459v-0.012c0-0.052 0-0.115-0.063-0.162-0.092-0.058-0.202-0.11-0.346-0.15-0.052-0.017-0.087-0.046-0.081-0.081 0-0.035 0.035-0.075 0.11-0.087 0.19-0.017 0.686-0.138 0.882-0.225 0.012 0.012 0.029 0.046 0.029 0.092l-0.006 0.063c-0.006 0.064-0.012 0.139-0.012 0.213 0 0.023 0.023 0.040 0.046 0.040 0.012 0 0.023-0.006 0.035-0.012 0.369-0.288 0.704-0.392 0.877-0.392 0.283 0 0.502 0.133 0.669 0.41 0.011 0.017 0.023 0.023 0.040 0.023 0.011 0 0.029-0.006 0.035-0.017 0.34-0.26 0.681-0.415 0.905-0.415 0.536 0 0.854 0.398 0.854 1.073 0 0.19 0 0.438-0.006 0.663 0 0.202-0.006 0.386-0.006 0.519 0 0.029 0.040 0.121 0.104 0.138 0.081 0.040 0.19 0.058 0.335 0.081h0.006c0.012 0.040-0.011 0.19-0.035 0.219-0.035 0-0.087 0-0.144-0.006-0.131-0.007-0.284-0.011-0.438-0.012h-0c-0.358 0-0.542 0.006-0.721 0.017-0.011-0.046-0.017-0.185 0-0.219 0.104-0.017 0.156-0.035 0.219-0.052 0.115-0.035 0.144-0.087 0.15-0.236 0-0.11 0.023-1.044-0.012-1.269-0.035-0.231-0.208-0.502-0.588-0.502-0.144 0-0.369 0.058-0.588 0.225-0.011 0.012-0.023 0.040-0.023 0.058v0.006c0.023 0.121 0.023 0.26 0.023 0.473v0.375c0 0.26-0.006 0.502 0 0.686 0 0.127 0.075 0.156 0.138 0.179 0.035 0.006 0.058 0.012 0.086 0.017 0.052 0.012 0.104 0.023 0.185 0.040 0.012 0.023 0.012 0.098-0.006 0.162-0.006 0.035-0.017 0.052-0.023 0.058-0.196-0.006-0.398-0.012-0.692-0.012-0.087 0-0.237 0.006-0.363 0.006-0.104 0-0.202 0.006-0.26 0.006-0.006-0.012-0.017-0.052-0.017-0.115 0-0.052 0.012-0.092 0.023-0.104 0.029-0.006 0.052-0.012 0.081-0.012 0.069-0.012 0.127-0.023 0.184-0.035 0.098-0.029 0.133-0.081 0.138-0.208 0.017-0.288 0.035-1.113-0.006-1.321-0.069-0.334-0.26-0.502-0.565-0.502-0.179 0-0.404 0.087-0.588 0.225-0.029 0.023-0.052 0.081-0.052 0.133v0.34c0 0.415 0 0.934 0.006 1.159 0.006 0.069 0.029 0.15 0.162 0.179 0.029 0.006 0.075 0.017 0.133 0.023l0.104 0.017c0.012 0.035 0.006 0.173-0.017 0.219-0.058 0-0.127-0.006-0.208-0.006-0.121-0.006-0.277-0.012-0.45-0.012-0.202 0-0.346 0.006-0.461 0.012-0.081-0.012-0.144-0.012-0.213-0.012z"></path>
<path fill="#fff" style="fill: var(--color15, #fff)" d="M2.191 20.332l-0.236-0.081s0.029-1.205-0.404-1.292c-0.288-0.335 0.046-14.188 1.084-0.046 0 0-0.358 0.179-0.421 0.485-0.069 0.3-0.023 0.934-0.023 0.934z"></path>
<path fill="#a6a385" style="fill: var(--color20, #a6a385)" d="M2.191 20.332l-0.236-0.081s0.029-1.205-0.404-1.292c-0.288-0.335 0.046-14.188 1.084-0.046 0 0-0.358 0.179-0.421 0.485-0.069 0.3-0.023 0.934-0.023 0.934z"></path>
<path fill="#fff" style="fill: var(--color15, #fff)" d="M2.318 19.167s2.071-1.361 1.586-4.193c-0.467-2.059-1.569-2.734-1.69-2.993-0.133-0.185-0.26-0.508-0.26-0.508l0.087 5.727c0 0.006-0.179 1.753 0.277 1.967z"></path>
<path fill="#499d4a" style="fill: var(--color21, #499d4a)" d="M2.318 19.167s2.071-1.361 1.586-4.193c-0.467-2.059-1.569-2.734-1.69-2.993-0.133-0.185-0.26-0.508-0.26-0.508l0.087 5.727c0 0.006-0.179 1.753 0.277 1.967z"></path>
<path fill="#fff" style="fill: var(--color15, #fff)" d="M1.833 19.242s-1.944-1.327-1.828-3.662c0.11-2.336 1.482-3.484 1.748-3.691 0.173-0.185 0.179-0.254 0.19-0.438 0.121 0.26 0.098 3.882 0.115 4.308 0.052 1.644-0.092 3.172-0.225 3.484z"></path>
<path fill="#58aa50" style="fill: var(--color22, #58aa50)" d="M1.833 19.242s-1.944-1.327-1.828-3.662c0.11-2.336 1.482-3.484 1.748-3.691 0.173-0.185 0.179-0.254 0.19-0.438 0.121 0.26 0.098 3.882 0.115 4.308 0.052 1.644-0.092 3.172-0.225 3.484z"></path>
</symbol>
<symbol id="icon-Github" viewBox="0 0 32 32">
<path d="M16 0c-8.84 0-16 7.16-16 16 0 7.080 4.58 13.060 10.94 15.18 0.8 0.14 1.1-0.34 1.1-0.76 0-0.38-0.020-1.64-0.020-2.98-4.020 0.74-5.060-0.98-5.38-1.88-0.18-0.46-0.96-1.88-1.64-2.26-0.56-0.3-1.36-1.040-0.020-1.060 1.26-0.020 2.16 1.16 2.46 1.64 1.44 2.42 3.74 1.74 4.66 1.32 0.14-1.040 0.56-1.74 1.020-2.14-3.56-0.4-7.28-1.78-7.28-7.9 0-1.74 0.62-3.18 1.64-4.3-0.16-0.4-0.72-2.040 0.16-4.24 0 0 1.34-0.42 4.4 1.64 1.28-0.36 2.64-0.54 4-0.54s2.72 0.18 4 0.54c3.060-2.080 4.4-1.64 4.4-1.64 0.88 2.2 0.32 3.84 0.16 4.24 1.020 1.12 1.64 2.54 1.64 4.3 0 6.14-3.74 7.5-7.3 7.9 0.58 0.5 1.080 1.46 1.080 2.96 0 2.14-0.020 3.86-0.020 4.4 0 0.42 0.3 0.92 1.1 0.76 6.32-2.12 10.9-8.12 10.9-15.18 0-8.84-7.16-16-16-16z"></path>
</symbol>
</defs>
</svg>
